{
	"patcher" : 	{
		"fileversion" : 1,
		"appversion" : 		{
			"major" : 8,
			"minor" : 3,
			"revision" : 0,
			"architecture" : "x64",
			"modernui" : 1
		}
,
		"classnamespace" : "box",
		"rect" : [ 143.0, 134.0, 1103.0, 800.0 ],
		"bglocked" : 0,
		"openinpresentation" : 0,
		"default_fontsize" : 12.0,
		"default_fontface" : 0,
		"default_fontname" : "Arial",
		"gridonopen" : 1,
		"gridsize" : [ 15.0, 15.0 ],
		"gridsnaponopen" : 1,
		"objectsnaponopen" : 1,
		"statusbarvisible" : 2,
		"toolbarvisible" : 1,
		"lefttoolbarpinned" : 0,
		"toptoolbarpinned" : 0,
		"righttoolbarpinned" : 0,
		"bottomtoolbarpinned" : 0,
		"toolbars_unpinned_last_save" : 0,
		"tallnewobj" : 0,
		"boxanimatetime" : 200,
		"enablehscroll" : 1,
		"enablevscroll" : 1,
		"devicewidth" : 0.0,
		"description" : "",
		"digest" : "",
		"tags" : "",
		"style" : "",
		"subpatcher_template" : "",
		"showrootpatcherontab" : 0,
		"showontab" : 0,
		"assistshowspatchername" : 0,
		"boxes" : [ 			{
				"box" : 				{
					"id" : "obj-1",
					"maxclass" : "newobj",
					"numinlets" : 0,
					"numoutlets" : 0,
					"patcher" : 					{
						"fileversion" : 1,
						"appversion" : 						{
							"major" : 8,
							"minor" : 3,
							"revision" : 0,
							"architecture" : "x64",
							"modernui" : 1
						}
,
						"classnamespace" : "box",
						"rect" : [ 143.0, 160.0, 1103.0, 774.0 ],
						"bglocked" : 0,
						"openinpresentation" : 0,
						"default_fontsize" : 12.0,
						"default_fontface" : 0,
						"default_fontname" : "Arial",
						"gridonopen" : 1,
						"gridsize" : [ 15.0, 15.0 ],
						"gridsnaponopen" : 1,
						"objectsnaponopen" : 1,
						"statusbarvisible" : 2,
						"toolbarvisible" : 1,
						"lefttoolbarpinned" : 0,
						"toptoolbarpinned" : 0,
						"righttoolbarpinned" : 0,
						"bottomtoolbarpinned" : 0,
						"toolbars_unpinned_last_save" : 0,
						"tallnewobj" : 0,
						"boxanimatetime" : 200,
						"enablehscroll" : 1,
						"enablevscroll" : 1,
						"devicewidth" : 0.0,
						"description" : "",
						"digest" : "",
						"tags" : "",
						"style" : "",
						"subpatcher_template" : "",
						"showontab" : 1,
						"assistshowspatchername" : 0,
						"boxes" : [ 							{
								"box" : 								{
									"fontsize" : 16.0,
									"id" : "obj-18",
									"maxclass" : "comment",
									"numinlets" : 1,
									"numoutlets" : 0,
									"patching_rect" : [ 49.0, 20.0, 536.0, 24.0 ],
									"text" : "Comment can be used to annotate your patch"
								}

							}
, 							{
								"box" : 								{
									"bgcolor" : [ 0.83921568627451, 0.423529411764706, 0.023529411764706, 1.0 ],
									"bubble" : 1,
									"bubbleusescolors" : 1,
									"id" : "obj-2",
									"linecount" : 3,
									"maxclass" : "comment",
									"numinlets" : 1,
									"numoutlets" : 0,
									"patching_rect" : [ 216.25, 183.0, 105.0, 51.0 ],
									"text" : "the comment object is right here"
								}

							}
, 							{
								"box" : 								{
									"bubble" : 1,
									"id" : "obj-6",
									"linecount" : 3,
									"maxclass" : "comment",
									"numinlets" : 1,
									"numoutlets" : 0,
									"patching_rect" : [ 410.0, 245.5, 203.0, 51.0 ],
									"text" : "btw, using \"set\" with the hot inlet of a message box is an alternative to using the cold inlet"
								}

							}
, 							{
								"box" : 								{
									"bubble" : 1,
									"id" : "obj-5",
									"maxclass" : "comment",
									"numinlets" : 1,
									"numoutlets" : 0,
									"patching_rect" : [ 319.0, 153.0, 203.0, 24.0 ],
									"text" : "\"set\" by itself clears the contents"
								}

							}
, 							{
								"box" : 								{
									"id" : "obj-3",
									"maxclass" : "message",
									"numinlets" : 2,
									"numoutlets" : 1,
									"outlettype" : [ "" ],
									"patching_rect" : [ 287.5, 153.0, 29.5, 22.0 ],
									"text" : "set"
								}

							}
, 							{
								"box" : 								{
									"bubble" : 1,
									"id" : "obj-1",
									"maxclass" : "comment",
									"numinlets" : 1,
									"numoutlets" : 0,
									"patching_rect" : [ 212.0, 127.0, 230.0, 24.0 ],
									"text" : "use set to fill a comment dynamically"
								}

							}
, 							{
								"box" : 								{
									"bubble" : 1,
									"id" : "obj-4",
									"linecount" : 3,
									"maxclass" : "comment",
									"numinlets" : 1,
									"numoutlets" : 0,
									"patching_rect" : [ 389.0, 50.0, 260.0, 51.0 ],
									"text" : "comments have no outlets and are used for giving humans who look at your patch information about it"
								}

							}
, 							{
								"box" : 								{
									"id" : "obj-29",
									"maxclass" : "message",
									"numinlets" : 2,
									"numoutlets" : 1,
									"outlettype" : [ "" ],
									"patching_rect" : [ 261.0, 260.0, 143.0, 22.0 ],
									"text" : "cool down your temper"
								}

							}
, 							{
								"box" : 								{
									"hidden" : 1,
									"id" : "obj-27",
									"maxclass" : "message",
									"numinlets" : 2,
									"numoutlets" : 1,
									"outlettype" : [ "" ],
									"patching_rect" : [ 344.0, 230.0, 29.5, 22.0 ],
									"text" : "set"
								}

							}
, 							{
								"box" : 								{
									"hidden" : 1,
									"id" : "obj-25",
									"maxclass" : "newobj",
									"numinlets" : 1,
									"numoutlets" : 1,
									"outlettype" : [ "bang" ],
									"patching_rect" : [ 344.0, 202.0, 63.0, 22.0 ],
									"text" : "closebang"
								}

							}
, 							{
								"box" : 								{
									"id" : "obj-22",
									"maxclass" : "message",
									"numinlets" : 2,
									"numoutlets" : 1,
									"outlettype" : [ "" ],
									"patching_rect" : [ 61.0, 127.0, 149.0, 22.0 ],
									"text" : "set cool down your temper"
								}

							}
, 							{
								"box" : 								{
									"id" : "obj-20",
									"maxclass" : "comment",
									"numinlets" : 1,
									"numoutlets" : 0,
									"patching_rect" : [ 61.0, 198.5, 150.0, 20.0 ]
								}

							}
, 							{
								"box" : 								{
									"id" : "obj-19",
									"maxclass" : "comment",
									"numinlets" : 1,
									"numoutlets" : 0,
									"patching_rect" : [ 49.0, 65.5, 338.0, 20.0 ],
									"text" : "this is very important information i think you should know"
								}

							}
 ],
						"lines" : [ 							{
								"patchline" : 								{
									"destination" : [ "obj-20", 0 ],
									"order" : 1,
									"source" : [ "obj-22", 0 ]
								}

							}
, 							{
								"patchline" : 								{
									"destination" : [ "obj-29", 0 ],
									"order" : 0,
									"source" : [ "obj-22", 0 ]
								}

							}
, 							{
								"patchline" : 								{
									"destination" : [ "obj-27", 0 ],
									"hidden" : 1,
									"source" : [ "obj-25", 0 ]
								}

							}
, 							{
								"patchline" : 								{
									"destination" : [ "obj-20", 0 ],
									"hidden" : 1,
									"order" : 1,
									"source" : [ "obj-27", 0 ]
								}

							}
, 							{
								"patchline" : 								{
									"destination" : [ "obj-29", 0 ],
									"hidden" : 1,
									"order" : 0,
									"source" : [ "obj-27", 0 ]
								}

							}
, 							{
								"patchline" : 								{
									"destination" : [ "obj-20", 0 ],
									"source" : [ "obj-3", 0 ]
								}

							}
 ]
					}
,
					"patching_rect" : [ 208.0, 38.0, 68.0, 22.0 ],
					"saved_object_attributes" : 					{
						"description" : "",
						"digest" : "",
						"globalpatchername" : "",
						"tags" : ""
					}
,
					"text" : "p comment"
				}

			}
, 			{
				"box" : 				{
					"id" : "obj-25",
					"maxclass" : "newobj",
					"numinlets" : 0,
					"numoutlets" : 0,
					"patcher" : 					{
						"fileversion" : 1,
						"appversion" : 						{
							"major" : 8,
							"minor" : 3,
							"revision" : 0,
							"architecture" : "x64",
							"modernui" : 1
						}
,
						"classnamespace" : "box",
						"rect" : [ 0.0, 26.0, 1103.0, 774.0 ],
						"bglocked" : 0,
						"openinpresentation" : 0,
						"default_fontsize" : 12.0,
						"default_fontface" : 0,
						"default_fontname" : "Arial",
						"gridonopen" : 1,
						"gridsize" : [ 15.0, 15.0 ],
						"gridsnaponopen" : 1,
						"objectsnaponopen" : 1,
						"statusbarvisible" : 2,
						"toolbarvisible" : 1,
						"lefttoolbarpinned" : 0,
						"toptoolbarpinned" : 0,
						"righttoolbarpinned" : 0,
						"bottomtoolbarpinned" : 0,
						"toolbars_unpinned_last_save" : 0,
						"tallnewobj" : 0,
						"boxanimatetime" : 200,
						"enablehscroll" : 1,
						"enablevscroll" : 1,
						"devicewidth" : 0.0,
						"description" : "",
						"digest" : "",
						"tags" : "",
						"style" : "",
						"subpatcher_template" : "",
						"showontab" : 1,
						"assistshowspatchername" : 0,
						"boxes" : [ 							{
								"box" : 								{
									"fontsize" : 16.0,
									"id" : "obj-18",
									"maxclass" : "comment",
									"numinlets" : 1,
									"numoutlets" : 0,
									"patching_rect" : [ 53.0, 21.0, 582.0, 24.0 ],
									"text" : "Append and prepend allow you to end items to the end or beginning of a list"
								}

							}
, 							{
								"box" : 								{
									"bubble" : 1,
									"bubbleside" : 3,
									"id" : "obj-14",
									"linecount" : 2,
									"maxclass" : "comment",
									"numinlets" : 1,
									"numoutlets" : 0,
									"patching_rect" : [ 228.0, 65.5, 130.0, 37.0 ],
									"text" : "set changes what will be prepended"
								}

							}
, 							{
								"box" : 								{
									"id" : "obj-57",
									"maxclass" : "message",
									"numinlets" : 2,
									"numoutlets" : 1,
									"outlettype" : [ "" ],
									"patching_rect" : [ 360.0, 73.0, 53.0, 22.0 ],
									"text" : "set miss"
								}

							}
, 							{
								"box" : 								{
									"hidden" : 1,
									"id" : "obj-47",
									"maxclass" : "message",
									"numinlets" : 2,
									"numoutlets" : 1,
									"outlettype" : [ "" ],
									"patching_rect" : [ 536.0, 116.0, 29.5, 22.0 ],
									"text" : "set"
								}

							}
, 							{
								"box" : 								{
									"hidden" : 1,
									"id" : "obj-48",
									"maxclass" : "newobj",
									"numinlets" : 1,
									"numoutlets" : 1,
									"outlettype" : [ "bang" ],
									"patching_rect" : [ 536.0, 86.0, 63.0, 22.0 ],
									"text" : "closebang"
								}

							}
, 							{
								"box" : 								{
									"id" : "obj-49",
									"maxclass" : "message",
									"numinlets" : 2,
									"numoutlets" : 1,
									"outlettype" : [ "" ],
									"patching_rect" : [ 536.0, 359.0, 241.0, 22.0 ],
									"text" : "miss bossman please get off my back sir"
								}

							}
, 							{
								"box" : 								{
									"color" : [ 0.83921568627451, 0.423529411764706, 0.023529411764706, 1.0 ],
									"id" : "obj-50",
									"maxclass" : "newobj",
									"numinlets" : 1,
									"numoutlets" : 1,
									"outlettype" : [ "" ],
									"patching_rect" : [ 437.0, 293.0, 149.0, 22.0 ],
									"text" : "append get off my back sir"
								}

							}
, 							{
								"box" : 								{
									"id" : "obj-51",
									"maxclass" : "message",
									"numinlets" : 2,
									"numoutlets" : 1,
									"outlettype" : [ "" ],
									"patching_rect" : [ 536.0, 238.0, 149.0, 22.0 ],
									"text" : "miss bossman please"
								}

							}
, 							{
								"box" : 								{
									"color" : [ 0.83921568627451, 0.423529411764706, 0.023529411764706, 1.0 ],
									"id" : "obj-52",
									"maxclass" : "newobj",
									"numinlets" : 1,
									"numoutlets" : 1,
									"outlettype" : [ "" ],
									"patching_rect" : [ 437.0, 191.0, 87.0, 22.0 ],
									"text" : "append please"
								}

							}
, 							{
								"box" : 								{
									"id" : "obj-53",
									"maxclass" : "message",
									"numinlets" : 2,
									"numoutlets" : 1,
									"outlettype" : [ "" ],
									"patching_rect" : [ 536.0, 166.0, 149.0, 22.0 ],
									"text" : "miss bossman"
								}

							}
, 							{
								"box" : 								{
									"color" : [ 0.83921568627451, 0.423529411764706, 0.023529411764706, 1.0 ],
									"id" : "obj-54",
									"maxclass" : "newobj",
									"numinlets" : 1,
									"numoutlets" : 1,
									"outlettype" : [ "" ],
									"patching_rect" : [ 437.0, 116.0, 89.0, 22.0 ],
									"text" : "prepend mister"
								}

							}
, 							{
								"box" : 								{
									"id" : "obj-55",
									"maxclass" : "message",
									"numinlets" : 2,
									"numoutlets" : 1,
									"outlettype" : [ "" ],
									"patching_rect" : [ 437.0, 73.0, 57.0, 22.0 ],
									"text" : "bossman"
								}

							}
, 							{
								"box" : 								{
									"hidden" : 1,
									"id" : "obj-37",
									"maxclass" : "message",
									"numinlets" : 2,
									"numoutlets" : 1,
									"outlettype" : [ "" ],
									"patching_rect" : [ 152.0, 116.0, 29.5, 22.0 ],
									"text" : "set"
								}

							}
, 							{
								"box" : 								{
									"hidden" : 1,
									"id" : "obj-35",
									"maxclass" : "newobj",
									"numinlets" : 1,
									"numoutlets" : 1,
									"outlettype" : [ "bang" ],
									"patching_rect" : [ 152.0, 86.0, 63.0, 22.0 ],
									"text" : "closebang"
								}

							}
, 							{
								"box" : 								{
									"id" : "obj-32",
									"maxclass" : "message",
									"numinlets" : 2,
									"numoutlets" : 1,
									"outlettype" : [ "" ],
									"patching_rect" : [ 152.0, 359.0, 241.0, 22.0 ],
									"text" : "mister bossman please get off my back sir"
								}

							}
, 							{
								"box" : 								{
									"color" : [ 0.83921568627451, 0.423529411764706, 0.023529411764706, 1.0 ],
									"id" : "obj-31",
									"maxclass" : "newobj",
									"numinlets" : 1,
									"numoutlets" : 1,
									"outlettype" : [ "" ],
									"patching_rect" : [ 53.0, 293.0, 149.0, 22.0 ],
									"text" : "append get off my back sir"
								}

							}
, 							{
								"box" : 								{
									"id" : "obj-30",
									"maxclass" : "message",
									"numinlets" : 2,
									"numoutlets" : 1,
									"outlettype" : [ "" ],
									"patching_rect" : [ 152.0, 238.0, 149.0, 22.0 ],
									"text" : "mister bossman please"
								}

							}
, 							{
								"box" : 								{
									"color" : [ 0.83921568627451, 0.423529411764706, 0.023529411764706, 1.0 ],
									"id" : "obj-29",
									"maxclass" : "newobj",
									"numinlets" : 1,
									"numoutlets" : 1,
									"outlettype" : [ "" ],
									"patching_rect" : [ 53.0, 191.0, 87.0, 22.0 ],
									"text" : "append please"
								}

							}
, 							{
								"box" : 								{
									"id" : "obj-25",
									"maxclass" : "message",
									"numinlets" : 2,
									"numoutlets" : 1,
									"outlettype" : [ "" ],
									"patching_rect" : [ 152.0, 166.0, 149.0, 22.0 ],
									"text" : "mister bossman"
								}

							}
, 							{
								"box" : 								{
									"color" : [ 0.83921568627451, 0.423529411764706, 0.023529411764706, 1.0 ],
									"id" : "obj-23",
									"maxclass" : "newobj",
									"numinlets" : 1,
									"numoutlets" : 1,
									"outlettype" : [ "" ],
									"patching_rect" : [ 53.0, 116.0, 89.0, 22.0 ],
									"text" : "prepend mister"
								}

							}
, 							{
								"box" : 								{
									"id" : "obj-22",
									"maxclass" : "message",
									"numinlets" : 2,
									"numoutlets" : 1,
									"outlettype" : [ "" ],
									"patching_rect" : [ 53.0, 73.0, 57.0, 22.0 ],
									"text" : "bossman"
								}

							}
 ],
						"lines" : [ 							{
								"patchline" : 								{
									"destination" : [ "obj-23", 0 ],
									"source" : [ "obj-22", 0 ]
								}

							}
, 							{
								"patchline" : 								{
									"destination" : [ "obj-25", 1 ],
									"order" : 0,
									"source" : [ "obj-23", 0 ]
								}

							}
, 							{
								"patchline" : 								{
									"destination" : [ "obj-29", 0 ],
									"order" : 1,
									"source" : [ "obj-23", 0 ]
								}

							}
, 							{
								"patchline" : 								{
									"destination" : [ "obj-30", 1 ],
									"order" : 0,
									"source" : [ "obj-29", 0 ]
								}

							}
, 							{
								"patchline" : 								{
									"destination" : [ "obj-31", 0 ],
									"order" : 1,
									"source" : [ "obj-29", 0 ]
								}

							}
, 							{
								"patchline" : 								{
									"destination" : [ "obj-32", 1 ],
									"source" : [ "obj-31", 0 ]
								}

							}
, 							{
								"patchline" : 								{
									"destination" : [ "obj-37", 0 ],
									"hidden" : 1,
									"source" : [ "obj-35", 0 ]
								}

							}
, 							{
								"patchline" : 								{
									"destination" : [ "obj-25", 0 ],
									"hidden" : 1,
									"order" : 2,
									"source" : [ "obj-37", 0 ]
								}

							}
, 							{
								"patchline" : 								{
									"destination" : [ "obj-30", 0 ],
									"hidden" : 1,
									"order" : 1,
									"source" : [ "obj-37", 0 ]
								}

							}
, 							{
								"patchline" : 								{
									"destination" : [ "obj-32", 0 ],
									"hidden" : 1,
									"order" : 0,
									"source" : [ "obj-37", 0 ]
								}

							}
, 							{
								"patchline" : 								{
									"destination" : [ "obj-49", 0 ],
									"hidden" : 1,
									"order" : 0,
									"source" : [ "obj-47", 0 ]
								}

							}
, 							{
								"patchline" : 								{
									"destination" : [ "obj-51", 0 ],
									"hidden" : 1,
									"order" : 1,
									"source" : [ "obj-47", 0 ]
								}

							}
, 							{
								"patchline" : 								{
									"destination" : [ "obj-53", 0 ],
									"hidden" : 1,
									"order" : 2,
									"source" : [ "obj-47", 0 ]
								}

							}
, 							{
								"patchline" : 								{
									"destination" : [ "obj-47", 0 ],
									"hidden" : 1,
									"source" : [ "obj-48", 0 ]
								}

							}
, 							{
								"patchline" : 								{
									"destination" : [ "obj-49", 1 ],
									"source" : [ "obj-50", 0 ]
								}

							}
, 							{
								"patchline" : 								{
									"destination" : [ "obj-50", 0 ],
									"order" : 1,
									"source" : [ "obj-52", 0 ]
								}

							}
, 							{
								"patchline" : 								{
									"destination" : [ "obj-51", 1 ],
									"order" : 0,
									"source" : [ "obj-52", 0 ]
								}

							}
, 							{
								"patchline" : 								{
									"destination" : [ "obj-52", 0 ],
									"order" : 1,
									"source" : [ "obj-54", 0 ]
								}

							}
, 							{
								"patchline" : 								{
									"destination" : [ "obj-53", 1 ],
									"order" : 0,
									"source" : [ "obj-54", 0 ]
								}

							}
, 							{
								"patchline" : 								{
									"destination" : [ "obj-54", 0 ],
									"source" : [ "obj-55", 0 ]
								}

							}
, 							{
								"patchline" : 								{
									"destination" : [ "obj-54", 0 ],
									"source" : [ "obj-57", 0 ]
								}

							}
 ]
					}
,
					"patching_rect" : [ 96.0, 38.0, 106.0, 22.0 ],
					"saved_object_attributes" : 					{
						"description" : "",
						"digest" : "",
						"globalpatchername" : "",
						"tags" : ""
					}
,
					"text" : "p append/prepend"
				}

			}
, 			{
				"box" : 				{
					"id" : "obj-24",
					"maxclass" : "newobj",
					"numinlets" : 0,
					"numoutlets" : 0,
					"patcher" : 					{
						"fileversion" : 1,
						"appversion" : 						{
							"major" : 8,
							"minor" : 3,
							"revision" : 0,
							"architecture" : "x64",
							"modernui" : 1
						}
,
						"classnamespace" : "box",
						"rect" : [ 0.0, 26.0, 1103.0, 774.0 ],
						"bglocked" : 0,
						"openinpresentation" : 0,
						"default_fontsize" : 12.0,
						"default_fontface" : 0,
						"default_fontname" : "Arial",
						"gridonopen" : 1,
						"gridsize" : [ 15.0, 15.0 ],
						"gridsnaponopen" : 1,
						"objectsnaponopen" : 1,
						"statusbarvisible" : 2,
						"toolbarvisible" : 1,
						"lefttoolbarpinned" : 0,
						"toptoolbarpinned" : 0,
						"righttoolbarpinned" : 0,
						"bottomtoolbarpinned" : 0,
						"toolbars_unpinned_last_save" : 0,
						"tallnewobj" : 0,
						"boxanimatetime" : 200,
						"enablehscroll" : 1,
						"enablevscroll" : 1,
						"devicewidth" : 0.0,
						"description" : "",
						"digest" : "",
						"tags" : "",
						"style" : "",
						"subpatcher_template" : "",
						"showontab" : 1,
						"assistshowspatchername" : 0,
						"boxes" : [ 							{
								"box" : 								{
									"bubble" : 1,
									"bubblepoint" : 0.0,
									"id" : "obj-22",
									"linecount" : 4,
									"maxclass" : "comment",
									"numinlets" : 1,
									"numoutlets" : 0,
									"patching_rect" : [ 1187.0, 109.0, 193.0, 64.0 ],
									"text" : "the \"set\" message is used by a lot of objects. usually, it means \"set the value of the object, but DON't output anything"
								}

							}
, 							{
								"box" : 								{
									"bubble" : 1,
									"bubblepoint" : 0.2,
									"bubbleside" : 2,
									"id" : "obj-21",
									"linecount" : 4,
									"maxclass" : "comment",
									"numinlets" : 1,
									"numoutlets" : 0,
									"patching_rect" : [ 939.0, 147.5, 114.0, 79.0 ],
									"text" : "$ syntax makes it easy to extract things from lists to make new lists"
								}

							}
, 							{
								"box" : 								{
									"bubble" : 1,
									"bubbleside" : 2,
									"id" : "obj-20",
									"linecount" : 2,
									"maxclass" : "comment",
									"numinlets" : 1,
									"numoutlets" : 0,
									"patching_rect" : [ 747.0, 161.0, 101.0, 52.0 ],
									"text" : "unless there is a $<int> inside"
								}

							}
, 							{
								"box" : 								{
									"bubble" : 1,
									"bubbleside" : 2,
									"id" : "obj-19",
									"linecount" : 3,
									"maxclass" : "comment",
									"numinlets" : 1,
									"numoutlets" : 0,
									"patching_rect" : [ 599.0, 161.0, 136.0, 66.0 ],
									"text" : "sending anything to the hot inlet acts like a bang"
								}

							}
, 							{
								"box" : 								{
									"fontsize" : 16.0,
									"id" : "obj-18",
									"maxclass" : "comment",
									"numinlets" : 1,
									"numoutlets" : 0,
									"patching_rect" : [ 40.0, 19.0, 536.0, 24.0 ],
									"text" : "Message boxes are simple holders for symbols, lists, ints, and floats"
								}

							}
, 							{
								"box" : 								{
									"bubble" : 1,
									"id" : "obj-16",
									"linecount" : 2,
									"maxclass" : "comment",
									"numinlets" : 1,
									"numoutlets" : 0,
									"patching_rect" : [ 185.5, 184.5, 118.0, 37.0 ],
									"text" : "bangs output stored data"
								}

							}
, 							{
								"box" : 								{
									"bgcolor" : [ 0.83921568627451, 0.423529411764706, 0.023529411764706, 1.0 ],
									"bubble" : 1,
									"bubbleside" : 3,
									"bubbleusescolors" : 1,
									"id" : "obj-14",
									"maxclass" : "comment",
									"numinlets" : 1,
									"numoutlets" : 0,
									"patching_rect" : [ 854.0, 77.0, 54.0, 24.0 ],
									"text" : "click"
								}

							}
, 							{
								"box" : 								{
									"bgcolor" : [ 0.83921568627451, 0.423529411764706, 0.023529411764706, 1.0 ],
									"bubble" : 1,
									"bubbleside" : 3,
									"bubbleusescolors" : 1,
									"id" : "obj-9",
									"maxclass" : "comment",
									"numinlets" : 1,
									"numoutlets" : 0,
									"patching_rect" : [ 718.0, 77.0, 54.0, 24.0 ],
									"text" : "click"
								}

							}
, 							{
								"box" : 								{
									"bgcolor" : [ 0.83921568627451, 0.423529411764706, 0.023529411764706, 1.0 ],
									"bubble" : 1,
									"bubbleside" : 3,
									"bubbleusescolors" : 1,
									"id" : "obj-8",
									"maxclass" : "comment",
									"numinlets" : 1,
									"numoutlets" : 0,
									"patching_rect" : [ 586.5, 77.0, 54.0, 24.0 ],
									"text" : "click"
								}

							}
, 							{
								"box" : 								{
									"bgcolor" : [ 0.83921568627451, 0.423529411764706, 0.023529411764706, 1.0 ],
									"bubble" : 1,
									"bubbleusescolors" : 1,
									"id" : "obj-6",
									"maxclass" : "comment",
									"numinlets" : 1,
									"numoutlets" : 0,
									"patching_rect" : [ 474.5, 77.0, 54.0, 24.0 ],
									"text" : "click"
								}

							}
, 							{
								"box" : 								{
									"bgcolor" : [ 0.83921568627451, 0.423529411764706, 0.023529411764706, 1.0 ],
									"bubble" : 1,
									"bubbleside" : 3,
									"bubbleusescolors" : 1,
									"id" : "obj-5",
									"maxclass" : "comment",
									"numinlets" : 1,
									"numoutlets" : 0,
									"patching_rect" : [ 289.5, 77.0, 54.0, 24.0 ],
									"text" : "click"
								}

							}
, 							{
								"box" : 								{
									"bgcolor" : [ 0.83921568627451, 0.423529411764706, 0.023529411764706, 1.0 ],
									"bubble" : 1,
									"bubbleusescolors" : 1,
									"id" : "obj-4",
									"maxclass" : "comment",
									"numinlets" : 1,
									"numoutlets" : 0,
									"patching_rect" : [ 185.5, 77.0, 54.0, 24.0 ],
									"text" : "click"
								}

							}
, 							{
								"box" : 								{
									"bgcolor" : [ 0.83921568627451, 0.423529411764706, 0.023529411764706, 1.0 ],
									"bubble" : 1,
									"bubbleusescolors" : 1,
									"id" : "obj-3",
									"maxclass" : "comment",
									"numinlets" : 1,
									"numoutlets" : 0,
									"patching_rect" : [ 79.0, 77.0, 54.0, 24.0 ],
									"text" : "click"
								}

							}
, 							{
								"box" : 								{
									"bubble" : 1,
									"id" : "obj-2",
									"linecount" : 3,
									"maxclass" : "comment",
									"numinlets" : 1,
									"numoutlets" : 0,
									"patching_rect" : [ 438.0, 214.5, 142.0, 51.0 ],
									"text" : "to fill a message box, send data to its RIGHT (cold) inlet"
								}

							}
, 							{
								"box" : 								{
									"id" : "obj-82",
									"maxclass" : "button",
									"numinlets" : 1,
									"numoutlets" : 1,
									"outlettype" : [ "bang" ],
									"parameter_enable" : 0,
									"patching_rect" : [ 1196.0, 71.0, 24.0, 24.0 ]
								}

							}
, 							{
								"box" : 								{
									"id" : "obj-80",
									"maxclass" : "number",
									"numinlets" : 1,
									"numoutlets" : 2,
									"outlettype" : [ "", "bang" ],
									"parameter_enable" : 0,
									"patching_rect" : [ 1086.0, 295.0, 50.0, 22.0 ]
								}

							}
, 							{
								"box" : 								{
									"id" : "obj-79",
									"maxclass" : "slider",
									"numinlets" : 1,
									"numoutlets" : 1,
									"outlettype" : [ "" ],
									"parameter_enable" : 0,
									"patching_rect" : [ 1086.0, 133.0, 20.0, 140.0 ]
								}

							}
, 							{
								"box" : 								{
									"id" : "obj-78",
									"maxclass" : "number",
									"numinlets" : 1,
									"numoutlets" : 2,
									"outlettype" : [ "", "bang" ],
									"parameter_enable" : 0,
									"patching_rect" : [ 1144.0, 295.0, 50.0, 22.0 ]
								}

							}
, 							{
								"box" : 								{
									"id" : "obj-76",
									"maxclass" : "message",
									"numinlets" : 2,
									"numoutlets" : 1,
									"outlettype" : [ "" ],
									"patching_rect" : [ 1144.0, 101.0, 41.0, 22.0 ],
									"text" : "set $1"
								}

							}
, 							{
								"box" : 								{
									"id" : "obj-74",
									"maxclass" : "slider",
									"numinlets" : 1,
									"numoutlets" : 1,
									"outlettype" : [ "" ],
									"parameter_enable" : 0,
									"patching_rect" : [ 1144.0, 133.0, 20.0, 140.0 ]
								}

							}
, 							{
								"box" : 								{
									"id" : "obj-73",
									"maxclass" : "number",
									"numinlets" : 1,
									"numoutlets" : 2,
									"outlettype" : [ "", "bang" ],
									"parameter_enable" : 0,
									"patching_rect" : [ 1144.0, 71.0, 50.0, 22.0 ]
								}

							}
, 							{
								"box" : 								{
									"id" : "obj-66",
									"maxclass" : "newobj",
									"numinlets" : 1,
									"numoutlets" : 0,
									"patching_rect" : [ 915.0, 270.0, 42.0, 22.0 ],
									"text" : "print 2"
								}

							}
, 							{
								"box" : 								{
									"id" : "obj-65",
									"maxclass" : "newobj",
									"numinlets" : 1,
									"numoutlets" : 0,
									"patching_rect" : [ 871.0, 270.0, 42.0, 22.0 ],
									"text" : "print 1"
								}

							}
, 							{
								"box" : 								{
									"id" : "obj-64",
									"maxclass" : "message",
									"numinlets" : 2,
									"numoutlets" : 1,
									"outlettype" : [ "" ],
									"patching_rect" : [ 915.0, 229.0, 82.0, 22.0 ],
									"text" : "$1 hours a $2"
								}

							}
, 							{
								"box" : 								{
									"id" : "obj-62",
									"maxclass" : "message",
									"numinlets" : 2,
									"numoutlets" : 1,
									"outlettype" : [ "" ],
									"patching_rect" : [ 915.0, 77.0, 100.0, 22.0 ],
									"text" : "24 day, my friend"
								}

							}
, 							{
								"box" : 								{
									"id" : "obj-60",
									"maxclass" : "newobj",
									"numinlets" : 1,
									"numoutlets" : 0,
									"patching_rect" : [ 772.0, 270.0, 32.0, 22.0 ],
									"text" : "print"
								}

							}
, 							{
								"box" : 								{
									"id" : "obj-59",
									"maxclass" : "message",
									"numinlets" : 2,
									"numoutlets" : 1,
									"outlettype" : [ "" ],
									"patching_rect" : [ 772.0, 229.0, 35.0, 22.0 ],
									"text" : "in $1"
								}

							}
, 							{
								"box" : 								{
									"id" : "obj-57",
									"maxclass" : "message",
									"numinlets" : 2,
									"numoutlets" : 1,
									"outlettype" : [ "" ],
									"patching_rect" : [ 772.0, 77.0, 41.0, 22.0 ],
									"text" : "iration"
								}

							}
, 							{
								"box" : 								{
									"id" : "obj-55",
									"linecount" : 2,
									"maxclass" : "message",
									"numinlets" : 2,
									"numoutlets" : 1,
									"outlettype" : [ "" ],
									"patching_rect" : [ 54.0, 412.0, 317.0, 35.0 ],
									"text" : ";\rmax launchbrowser https://youtu.be/60mRm_q3ARo?t=21"
								}

							}
, 							{
								"box" : 								{
									"id" : "obj-53",
									"maxclass" : "message",
									"numinlets" : 2,
									"numoutlets" : 1,
									"outlettype" : [ "" ],
									"patching_rect" : [ 647.0, 77.0, 31.0, 22.0 ],
									"text" : "asdf"
								}

							}
, 							{
								"box" : 								{
									"id" : "obj-49",
									"maxclass" : "newobj",
									"numinlets" : 1,
									"numoutlets" : 0,
									"patching_rect" : [ 647.0, 270.0, 32.0, 22.0 ],
									"text" : "print"
								}

							}
, 							{
								"box" : 								{
									"id" : "obj-51",
									"maxclass" : "message",
									"numinlets" : 2,
									"numoutlets" : 1,
									"outlettype" : [ "" ],
									"patching_rect" : [ 647.0, 229.0, 41.0, 22.0 ],
									"text" : "colors"
								}

							}
, 							{
								"box" : 								{
									"id" : "obj-48",
									"maxclass" : "button",
									"numinlets" : 1,
									"numoutlets" : 1,
									"outlettype" : [ "bang" ],
									"parameter_enable" : 0,
									"patching_rect" : [ 447.0, 77.0, 24.0, 24.0 ]
								}

							}
, 							{
								"box" : 								{
									"id" : "obj-46",
									"maxclass" : "newobj",
									"numinlets" : 1,
									"numoutlets" : 0,
									"patching_rect" : [ 308.0, 270.0, 32.0, 22.0 ],
									"text" : "print"
								}

							}
, 							{
								"box" : 								{
									"id" : "obj-45",
									"maxclass" : "message",
									"numinlets" : 2,
									"numoutlets" : 1,
									"outlettype" : [ "" ],
									"patching_rect" : [ 352.0, 77.0, 89.0, 22.0 ],
									"text" : "are the primary"
								}

							}
, 							{
								"box" : 								{
									"hidden" : 1,
									"id" : "obj-43",
									"maxclass" : "message",
									"numinlets" : 2,
									"numoutlets" : 1,
									"outlettype" : [ "" ],
									"patching_rect" : [ 383.0, 307.0, 29.5, 22.0 ],
									"text" : "set"
								}

							}
, 							{
								"box" : 								{
									"hidden" : 1,
									"id" : "obj-41",
									"maxclass" : "newobj",
									"numinlets" : 1,
									"numoutlets" : 1,
									"outlettype" : [ "bang" ],
									"patching_rect" : [ 383.0, 280.0, 63.0, 22.0 ],
									"text" : "closebang"
								}

							}
, 							{
								"box" : 								{
									"id" : "obj-40",
									"maxclass" : "message",
									"numinlets" : 2,
									"numoutlets" : 1,
									"outlettype" : [ "" ],
									"patching_rect" : [ 308.0, 229.0, 125.0, 22.0 ],
									"text" : "are the primary"
								}

							}
, 							{
								"box" : 								{
									"id" : "obj-38",
									"maxclass" : "newobj",
									"numinlets" : 1,
									"numoutlets" : 2,
									"outlettype" : [ "bang", "bang" ],
									"patching_rect" : [ 151.0, 192.0, 32.0, 22.0 ],
									"text" : "t b b"
								}

							}
, 							{
								"box" : 								{
									"id" : "obj-36",
									"maxclass" : "message",
									"numinlets" : 2,
									"numoutlets" : 1,
									"outlettype" : [ "" ],
									"patching_rect" : [ 212.0, 229.0, 63.0, 22.0 ],
									"text" : "and green"
								}

							}
, 							{
								"box" : 								{
									"id" : "obj-35",
									"maxclass" : "newobj",
									"numinlets" : 1,
									"numoutlets" : 0,
									"patching_rect" : [ 212.0, 270.0, 32.0, 22.0 ],
									"text" : "print"
								}

							}
, 							{
								"box" : 								{
									"id" : "obj-34",
									"maxclass" : "newobj",
									"numinlets" : 1,
									"numoutlets" : 0,
									"patching_rect" : [ 164.0, 270.0, 32.0, 22.0 ],
									"text" : "print"
								}

							}
, 							{
								"box" : 								{
									"id" : "obj-33",
									"maxclass" : "button",
									"numinlets" : 1,
									"numoutlets" : 1,
									"outlettype" : [ "bang" ],
									"parameter_enable" : 0,
									"patching_rect" : [ 151.0, 77.0, 24.0, 24.0 ]
								}

							}
, 							{
								"box" : 								{
									"id" : "obj-31",
									"maxclass" : "message",
									"numinlets" : 2,
									"numoutlets" : 1,
									"outlettype" : [ "" ],
									"patching_rect" : [ 164.0, 229.0, 31.0, 22.0 ],
									"text" : "gold"
								}

							}
, 							{
								"box" : 								{
									"id" : "obj-30",
									"maxclass" : "newobj",
									"numinlets" : 1,
									"numoutlets" : 0,
									"patching_rect" : [ 44.0, 270.0, 32.0, 22.0 ],
									"text" : "print"
								}

							}
, 							{
								"box" : 								{
									"id" : "obj-29",
									"maxclass" : "message",
									"numinlets" : 2,
									"numoutlets" : 1,
									"outlettype" : [ "" ],
									"patching_rect" : [ 44.0, 77.0, 29.5, 22.0 ],
									"text" : "red"
								}

							}
 ],
						"lines" : [ 							{
								"patchline" : 								{
									"destination" : [ "obj-30", 0 ],
									"source" : [ "obj-29", 0 ]
								}

							}
, 							{
								"patchline" : 								{
									"destination" : [ "obj-34", 0 ],
									"source" : [ "obj-31", 0 ]
								}

							}
, 							{
								"patchline" : 								{
									"destination" : [ "obj-38", 0 ],
									"source" : [ "obj-33", 0 ]
								}

							}
, 							{
								"patchline" : 								{
									"destination" : [ "obj-35", 0 ],
									"source" : [ "obj-36", 0 ]
								}

							}
, 							{
								"patchline" : 								{
									"destination" : [ "obj-31", 0 ],
									"source" : [ "obj-38", 1 ]
								}

							}
, 							{
								"patchline" : 								{
									"destination" : [ "obj-36", 0 ],
									"source" : [ "obj-38", 0 ]
								}

							}
, 							{
								"patchline" : 								{
									"destination" : [ "obj-46", 0 ],
									"source" : [ "obj-40", 0 ]
								}

							}
, 							{
								"patchline" : 								{
									"destination" : [ "obj-43", 0 ],
									"hidden" : 1,
									"source" : [ "obj-41", 0 ]
								}

							}
, 							{
								"patchline" : 								{
									"destination" : [ "obj-40", 0 ],
									"hidden" : 1,
									"source" : [ "obj-43", 0 ]
								}

							}
, 							{
								"patchline" : 								{
									"destination" : [ "obj-40", 1 ],
									"source" : [ "obj-45", 0 ]
								}

							}
, 							{
								"patchline" : 								{
									"destination" : [ "obj-40", 0 ],
									"source" : [ "obj-48", 0 ]
								}

							}
, 							{
								"patchline" : 								{
									"destination" : [ "obj-49", 0 ],
									"source" : [ "obj-51", 0 ]
								}

							}
, 							{
								"patchline" : 								{
									"destination" : [ "obj-51", 0 ],
									"source" : [ "obj-53", 0 ]
								}

							}
, 							{
								"patchline" : 								{
									"destination" : [ "obj-59", 0 ],
									"source" : [ "obj-57", 0 ]
								}

							}
, 							{
								"patchline" : 								{
									"destination" : [ "obj-60", 0 ],
									"source" : [ "obj-59", 0 ]
								}

							}
, 							{
								"patchline" : 								{
									"destination" : [ "obj-64", 0 ],
									"order" : 0,
									"source" : [ "obj-62", 0 ]
								}

							}
, 							{
								"patchline" : 								{
									"destination" : [ "obj-65", 0 ],
									"order" : 1,
									"source" : [ "obj-62", 0 ]
								}

							}
, 							{
								"patchline" : 								{
									"destination" : [ "obj-66", 0 ],
									"source" : [ "obj-64", 0 ]
								}

							}
, 							{
								"patchline" : 								{
									"destination" : [ "obj-76", 0 ],
									"order" : 0,
									"source" : [ "obj-73", 0 ]
								}

							}
, 							{
								"patchline" : 								{
									"destination" : [ "obj-79", 0 ],
									"order" : 1,
									"source" : [ "obj-73", 0 ]
								}

							}
, 							{
								"patchline" : 								{
									"destination" : [ "obj-78", 0 ],
									"source" : [ "obj-74", 0 ]
								}

							}
, 							{
								"patchline" : 								{
									"destination" : [ "obj-74", 0 ],
									"source" : [ "obj-76", 0 ]
								}

							}
, 							{
								"patchline" : 								{
									"destination" : [ "obj-80", 0 ],
									"source" : [ "obj-79", 0 ]
								}

							}
, 							{
								"patchline" : 								{
									"destination" : [ "obj-74", 0 ],
									"source" : [ "obj-82", 0 ]
								}

							}
 ]
					}
,
					"patching_rect" : [ 21.0, 38.0, 67.0, 22.0 ],
					"saved_object_attributes" : 					{
						"description" : "",
						"digest" : "",
						"globalpatchername" : "",
						"tags" : ""
					}
,
					"text" : "p message"
				}

			}
 ],
		"lines" : [  ],
		"dependency_cache" : [  ],
		"autosave" : 0
	}

}
