{
	"patcher" : 	{
		"fileversion" : 1,
		"appversion" : 		{
			"major" : 8,
			"minor" : 5,
			"revision" : 2,
			"architecture" : "x64",
			"modernui" : 1
		}
,
		"classnamespace" : "box",
		"rect" : [ 810.0, 205.0, 962.0, 652.0 ],
		"bglocked" : 0,
		"openinpresentation" : 0,
		"default_fontsize" : 12.0,
		"default_fontface" : 0,
		"default_fontname" : "Arial",
		"gridonopen" : 1,
		"gridsize" : [ 15.0, 15.0 ],
		"gridsnaponopen" : 1,
		"objectsnaponopen" : 1,
		"statusbarvisible" : 2,
		"toolbarvisible" : 1,
		"lefttoolbarpinned" : 0,
		"toptoolbarpinned" : 0,
		"righttoolbarpinned" : 0,
		"bottomtoolbarpinned" : 0,
		"toolbars_unpinned_last_save" : 0,
		"tallnewobj" : 0,
		"boxanimatetime" : 200,
		"enablehscroll" : 1,
		"enablevscroll" : 1,
		"devicewidth" : 0.0,
		"description" : "",
		"digest" : "",
		"tags" : "",
		"style" : "",
		"subpatcher_template" : "",
		"showrootpatcherontab" : 0,
		"showontab" : 0,
		"assistshowspatchername" : 0,
		"boxes" : [ 			{
				"box" : 				{
					"id" : "obj-4",
					"maxclass" : "newobj",
					"numinlets" : 0,
					"numoutlets" : 0,
					"patcher" : 					{
						"fileversion" : 1,
						"appversion" : 						{
							"major" : 8,
							"minor" : 5,
							"revision" : 2,
							"architecture" : "x64",
							"modernui" : 1
						}
,
						"classnamespace" : "box",
						"rect" : [ 0.0, 26.0, 962.0, 626.0 ],
						"bglocked" : 0,
						"openinpresentation" : 0,
						"default_fontsize" : 12.0,
						"default_fontface" : 0,
						"default_fontname" : "Arial",
						"gridonopen" : 1,
						"gridsize" : [ 15.0, 15.0 ],
						"gridsnaponopen" : 1,
						"objectsnaponopen" : 1,
						"statusbarvisible" : 2,
						"toolbarvisible" : 1,
						"lefttoolbarpinned" : 0,
						"toptoolbarpinned" : 0,
						"righttoolbarpinned" : 0,
						"bottomtoolbarpinned" : 0,
						"toolbars_unpinned_last_save" : 0,
						"tallnewobj" : 0,
						"boxanimatetime" : 200,
						"enablehscroll" : 1,
						"enablevscroll" : 1,
						"devicewidth" : 0.0,
						"description" : "",
						"digest" : "",
						"tags" : "",
						"style" : "",
						"subpatcher_template" : "",
						"showontab" : 1,
						"assistshowspatchername" : 0,
						"boxes" : [ 							{
								"box" : 								{
									"hidden" : 1,
									"id" : "obj-11",
									"maxclass" : "newobj",
									"numinlets" : 1,
									"numoutlets" : 4,
									"outlettype" : [ "", "", "", "" ],
									"patching_rect" : [ 203.0, 384.0, 56.0, 22.0 ],
									"restore" : 									{
										"live.gain~" : [ -70.0 ]
									}
,
									"text" : "autopattr",
									"varname" : "u126006288"
								}

							}
, 							{
								"box" : 								{
									"fontsize" : 24.0,
									"id" : "obj-8",
									"maxclass" : "comment",
									"numinlets" : 1,
									"numoutlets" : 0,
									"patching_rect" : [ 49.0, 28.0, 358.0, 33.0 ],
									"text" : "Cycle~"
								}

							}
, 							{
								"box" : 								{
									"fontsize" : 16.0,
									"id" : "obj-10",
									"maxclass" : "comment",
									"numinlets" : 1,
									"numoutlets" : 0,
									"patching_rect" : [ 49.0, 67.0, 529.0, 24.0 ],
									"text" : "a sinusoidal oscillator "
								}

							}
, 							{
								"box" : 								{
									"id" : "obj-7",
									"maxclass" : "live.scope~",
									"numinlets" : 2,
									"numoutlets" : 1,
									"outlettype" : [ "bang" ],
									"patching_rect" : [ 377.0, 260.0, 184.0, 68.0 ]
								}

							}
, 							{
								"box" : 								{
									"id" : "obj-5",
									"maxclass" : "live.scope~",
									"numinlets" : 2,
									"numoutlets" : 1,
									"outlettype" : [ "bang" ],
									"patching_rect" : [ 120.0, 158.0, 184.0, 68.0 ]
								}

							}
, 							{
								"box" : 								{
									"id" : "obj-17",
									"lastchannelcount" : 0,
									"maxclass" : "live.gain~",
									"numinlets" : 2,
									"numoutlets" : 5,
									"orientation" : 1,
									"outlettype" : [ "signal", "signal", "", "float", "list" ],
									"parameter_enable" : 1,
									"patching_rect" : [ 49.0, 296.0, 136.0, 47.0 ],
									"saved_attribute_attributes" : 									{
										"valueof" : 										{
											"parameter_longname" : "live.gain~[8]",
											"parameter_mmax" : 6.0,
											"parameter_mmin" : -70.0,
											"parameter_shortname" : "live.gain~[6]",
											"parameter_type" : 0,
											"parameter_unitstyle" : 4
										}

									}
,
									"varname" : "live.gain~"
								}

							}
, 							{
								"box" : 								{
									"bubble" : 1,
									"id" : "obj-26",
									"linecount" : 3,
									"maxclass" : "comment",
									"numinlets" : 1,
									"numoutlets" : 0,
									"patching_rect" : [ 198.0, 245.5, 152.0, 51.0 ],
									"text" : "the second argument (\"sound1\") refers to the buffer we'll play back"
								}

							}
, 							{
								"box" : 								{
									"id" : "obj-9",
									"maxclass" : "ezdac~",
									"numinlets" : 2,
									"numoutlets" : 0,
									"patching_rect" : [ 49.0, 355.0, 45.0, 45.0 ]
								}

							}
, 							{
								"box" : 								{
									"color" : [ 0.83921568627451, 0.423529411764706, 0.023529411764706, 1.0 ],
									"id" : "obj-4",
									"maxclass" : "newobj",
									"numinlets" : 3,
									"numoutlets" : 2,
									"outlettype" : [ "signal", "signal" ],
									"patching_rect" : [ 49.0, 260.0, 143.0, 22.0 ],
									"text" : "groove~ sound1 @loop 1"
								}

							}
, 							{
								"box" : 								{
									"bubble" : 1,
									"id" : "obj-14",
									"maxclass" : "comment",
									"numinlets" : 1,
									"numoutlets" : 0,
									"patching_rect" : [ 101.0, 109.0, 144.0, 24.0 ],
									"text" : "frequency in Hz"
								}

							}
, 							{
								"box" : 								{
									"color" : [ 0.83921568627451, 0.423529411764706, 0.023529411764706, 1.0 ],
									"id" : "obj-3",
									"maxclass" : "newobj",
									"numinlets" : 2,
									"numoutlets" : 1,
									"outlettype" : [ "signal" ],
									"patching_rect" : [ 49.0, 152.0, 43.0, 22.0 ],
									"text" : "cycle~"
								}

							}
, 							{
								"box" : 								{
									"format" : 6,
									"id" : "obj-2",
									"maxclass" : "flonum",
									"numinlets" : 1,
									"numoutlets" : 2,
									"outlettype" : [ "", "bang" ],
									"parameter_enable" : 0,
									"patching_rect" : [ 49.0, 109.0, 50.0, 22.0 ]
								}

							}
 ],
						"lines" : [ 							{
								"patchline" : 								{
									"destination" : [ "obj-9", 1 ],
									"order" : 0,
									"source" : [ "obj-17", 0 ]
								}

							}
, 							{
								"patchline" : 								{
									"destination" : [ "obj-9", 0 ],
									"order" : 1,
									"source" : [ "obj-17", 0 ]
								}

							}
, 							{
								"patchline" : 								{
									"destination" : [ "obj-3", 0 ],
									"source" : [ "obj-2", 0 ]
								}

							}
, 							{
								"patchline" : 								{
									"destination" : [ "obj-4", 0 ],
									"order" : 1,
									"source" : [ "obj-3", 0 ]
								}

							}
, 							{
								"patchline" : 								{
									"destination" : [ "obj-5", 0 ],
									"order" : 0,
									"source" : [ "obj-3", 0 ]
								}

							}
, 							{
								"patchline" : 								{
									"destination" : [ "obj-17", 0 ],
									"order" : 1,
									"source" : [ "obj-4", 0 ]
								}

							}
, 							{
								"patchline" : 								{
									"destination" : [ "obj-7", 0 ],
									"order" : 0,
									"source" : [ "obj-4", 0 ]
								}

							}
 ]
					}
,
					"patching_rect" : [ 353.0, 20.0, 53.0, 22.0 ],
					"saved_object_attributes" : 					{
						"description" : "",
						"digest" : "",
						"globalpatchername" : "",
						"tags" : ""
					}
,
					"text" : "p cycle~",
					"varname" : "cycle~"
				}

			}
, 			{
				"box" : 				{
					"id" : "obj-45",
					"maxclass" : "newobj",
					"numinlets" : 1,
					"numoutlets" : 2,
					"outlettype" : [ "bang", "bang" ],
					"patching_rect" : [ 66.0, 117.0, 69.0, 22.0 ],
					"text" : "t b b"
				}

			}
, 			{
				"box" : 				{
					"id" : "obj-42",
					"maxclass" : "newobj",
					"numinlets" : 1,
					"numoutlets" : 1,
					"outlettype" : [ "bang" ],
					"patching_rect" : [ 66.0, 89.0, 58.0, 22.0 ],
					"text" : "loadbang"
				}

			}
, 			{
				"box" : 				{
					"id" : "obj-41",
					"maxclass" : "button",
					"numinlets" : 1,
					"numoutlets" : 1,
					"outlettype" : [ "bang" ],
					"parameter_enable" : 0,
					"patching_rect" : [ 242.0, 260.0, 24.0, 24.0 ]
				}

			}
, 			{
				"box" : 				{
					"id" : "obj-39",
					"maxclass" : "newobj",
					"numinlets" : 2,
					"numoutlets" : 1,
					"outlettype" : [ "" ],
					"patching_rect" : [ 304.5, 507.0, 67.0, 22.0 ],
					"text" : "pack s -70."
				}

			}
, 			{
				"box" : 				{
					"id" : "obj-38",
					"maxclass" : "newobj",
					"numinlets" : 1,
					"numoutlets" : 1,
					"outlettype" : [ "" ],
					"patching_rect" : [ 304.5, 481.0, 25.0, 22.0 ],
					"text" : "iter"
				}

			}
, 			{
				"box" : 				{
					"id" : "obj-33",
					"maxclass" : "newobj",
					"numinlets" : 2,
					"numoutlets" : 2,
					"outlettype" : [ "", "" ],
					"patching_rect" : [ 305.0, 427.0, 38.0, 22.0 ],
					"text" : "zl.reg"
				}

			}
, 			{
				"box" : 				{
					"id" : "obj-32",
					"maxclass" : "newobj",
					"numinlets" : 1,
					"numoutlets" : 2,
					"outlettype" : [ "bang", "" ],
					"patching_rect" : [ 305.0, 365.0, 61.5, 22.0 ],
					"text" : "t b l"
				}

			}
, 			{
				"box" : 				{
					"id" : "obj-31",
					"maxclass" : "newobj",
					"numinlets" : 2,
					"numoutlets" : 2,
					"outlettype" : [ "", "" ],
					"patching_rect" : [ 305.0, 337.0, 47.0, 22.0 ],
					"text" : "zl.nth 2"
				}

			}
, 			{
				"box" : 				{
					"id" : "obj-30",
					"maxclass" : "newobj",
					"numinlets" : 2,
					"numoutlets" : 2,
					"outlettype" : [ "", "" ],
					"patching_rect" : [ 305.0, 306.0, 60.0, 22.0 ],
					"text" : "route -70."
				}

			}
, 			{
				"box" : 				{
					"id" : "obj-28",
					"maxclass" : "newobj",
					"numinlets" : 2,
					"numoutlets" : 2,
					"outlettype" : [ "", "" ],
					"patching_rect" : [ 305.0, 260.0, 37.0, 22.0 ],
					"text" : "zl.rev"
				}

			}
, 			{
				"box" : 				{
					"id" : "obj-23",
					"maxclass" : "newobj",
					"numinlets" : 2,
					"numoutlets" : 2,
					"outlettype" : [ "", "" ],
					"patching_rect" : [ 304.5, 454.0, 62.0, 22.0 ],
					"text" : "zl.filter"
				}

			}
, 			{
				"box" : 				{
					"id" : "obj-19",
					"maxclass" : "newobj",
					"numinlets" : 2,
					"numoutlets" : 2,
					"outlettype" : [ "bang", "" ],
					"patching_rect" : [ 116.0, 260.0, 54.0, 22.0 ],
					"text" : "sel done"
				}

			}
, 			{
				"box" : 				{
					"id" : "obj-18",
					"maxclass" : "newobj",
					"numinlets" : 2,
					"numoutlets" : 2,
					"outlettype" : [ "", "" ],
					"patching_rect" : [ 116.0, 306.0, 51.0, 22.0 ],
					"text" : "zl.group"
				}

			}
, 			{
				"box" : 				{
					"id" : "obj-16",
					"maxclass" : "newobj",
					"numinlets" : 4,
					"numoutlets" : 4,
					"outlettype" : [ "", "", "", "" ],
					"patching_rect" : [ 116.0, 225.0, 208.0, 22.0 ],
					"text" : "route clientlist add remove"
				}

			}
, 			{
				"box" : 				{
					"id" : "obj-15",
					"maxclass" : "message",
					"numinlets" : 2,
					"numoutlets" : 1,
					"outlettype" : [ "" ],
					"patching_rect" : [ 116.0, 157.0, 68.0, 22.0 ],
					"text" : "getclientlist"
				}

			}
, 			{
				"box" : 				{
					"id" : "obj-3",
					"maxclass" : "newobj",
					"numinlets" : 1,
					"numoutlets" : 1,
					"outlettype" : [ "" ],
					"patching_rect" : [ 116.0, 196.0, 340.0, 22.0 ],
					"saved_object_attributes" : 					{
						"client_rect" : [ 4, 79, 390, 323 ],
						"parameter_enable" : 0,
						"parameter_mappable" : 0,
						"storage_rect" : [ 583, 69, 1034, 197 ]
					}
,
					"text" : "pattrstorage gains @greedy 1 @outputmode 3 @notifymode 1",
					"varname" : "gains"
				}

			}
, 			{
				"box" : 				{
					"id" : "obj-13",
					"maxclass" : "newobj",
					"numinlets" : 0,
					"numoutlets" : 0,
					"patcher" : 					{
						"fileversion" : 1,
						"appversion" : 						{
							"major" : 8,
							"minor" : 5,
							"revision" : 2,
							"architecture" : "x64",
							"modernui" : 1
						}
,
						"classnamespace" : "box",
						"rect" : [ 34.0, 79.0, 962.0, 626.0 ],
						"bglocked" : 0,
						"openinpresentation" : 0,
						"default_fontsize" : 12.0,
						"default_fontface" : 0,
						"default_fontname" : "Arial",
						"gridonopen" : 1,
						"gridsize" : [ 15.0, 15.0 ],
						"gridsnaponopen" : 1,
						"objectsnaponopen" : 1,
						"statusbarvisible" : 2,
						"toolbarvisible" : 1,
						"lefttoolbarpinned" : 0,
						"toptoolbarpinned" : 0,
						"righttoolbarpinned" : 0,
						"bottomtoolbarpinned" : 0,
						"toolbars_unpinned_last_save" : 0,
						"tallnewobj" : 0,
						"boxanimatetime" : 200,
						"enablehscroll" : 1,
						"enablevscroll" : 1,
						"devicewidth" : 0.0,
						"description" : "",
						"digest" : "",
						"tags" : "",
						"style" : "",
						"subpatcher_template" : "",
						"showontab" : 0,
						"assistshowspatchername" : 0,
						"boxes" : [ 							{
								"box" : 								{
									"id" : "obj-7",
									"linecount" : 2,
									"maxclass" : "comment",
									"numinlets" : 1,
									"numoutlets" : 0,
									"patching_rect" : [ 59.0, 50.0, 529.0, 33.0 ],
									"text" : "in this example you can draw a shape into the itable, and peek~ dumps those values into the buffer. then, we use wave~ just like in the last example to play it back."
								}

							}
, 							{
								"box" : 								{
									"fontsize" : 16.0,
									"id" : "obj-1",
									"maxclass" : "comment",
									"numinlets" : 1,
									"numoutlets" : 0,
									"patching_rect" : [ 59.0, 20.0, 529.0, 42.0 ],
									"text" : "peek~ fills a buffer with a list\n"
								}

							}
, 							{
								"box" : 								{
									"hidden" : 1,
									"id" : "obj-12",
									"maxclass" : "newobj",
									"numinlets" : 1,
									"numoutlets" : 4,
									"outlettype" : [ "", "", "", "" ],
									"patching_rect" : [ 80.0, 666.0, 56.0, 22.0 ],
									"restore" : 									{
										"live.gain~" : [ -70.0 ]
									}
,
									"text" : "autopattr",
									"varname" : "u160012651"
								}

							}
, 							{
								"box" : 								{
									"format" : 6,
									"id" : "obj-36",
									"maxclass" : "flonum",
									"numinlets" : 1,
									"numoutlets" : 2,
									"outlettype" : [ "", "bang" ],
									"parameter_enable" : 0,
									"patching_rect" : [ 249.75, 453.5, 50.0, 22.0 ]
								}

							}
, 							{
								"box" : 								{
									"id" : "obj-34",
									"maxclass" : "message",
									"numinlets" : 2,
									"numoutlets" : 1,
									"outlettype" : [ "" ],
									"patching_rect" : [ 280.0, 549.5, 41.0, 22.0 ],
									"text" : "set $1"
								}

							}
, 							{
								"box" : 								{
									"format" : 6,
									"id" : "obj-33",
									"maxclass" : "flonum",
									"numinlets" : 1,
									"numoutlets" : 2,
									"outlettype" : [ "", "bang" ],
									"parameter_enable" : 0,
									"patching_rect" : [ 190.5, 453.5, 50.0, 22.0 ]
								}

							}
, 							{
								"box" : 								{
									"id" : "obj-31",
									"maxclass" : "message",
									"numinlets" : 2,
									"numoutlets" : 1,
									"outlettype" : [ "" ],
									"patching_rect" : [ 237.0, 549.5, 41.0, 22.0 ],
									"text" : "set $1"
								}

							}
, 							{
								"box" : 								{
									"format" : 6,
									"id" : "obj-28",
									"maxclass" : "flonum",
									"numinlets" : 1,
									"numoutlets" : 2,
									"outlettype" : [ "", "bang" ],
									"parameter_enable" : 0,
									"patching_rect" : [ 475.0, 237.0, 50.0, 22.0 ]
								}

							}
, 							{
								"box" : 								{
									"format" : 6,
									"id" : "obj-26",
									"maxclass" : "flonum",
									"numinlets" : 1,
									"numoutlets" : 2,
									"outlettype" : [ "", "bang" ],
									"parameter_enable" : 0,
									"patching_rect" : [ 545.0, 237.0, 50.0, 22.0 ]
								}

							}
, 							{
								"box" : 								{
									"id" : "obj-24",
									"maxclass" : "newobj",
									"numinlets" : 1,
									"numoutlets" : 2,
									"outlettype" : [ "float", "float" ],
									"patching_rect" : [ 475.0, 202.0, 89.0, 22.0 ],
									"text" : "unpack f f"
								}

							}
, 							{
								"box" : 								{
									"id" : "obj-22",
									"maxclass" : "newobj",
									"numinlets" : 0,
									"numoutlets" : 1,
									"outlettype" : [ "" ],
									"patching_rect" : [ 475.0, 178.0, 63.0, 22.0 ],
									"text" : "r start-end"
								}

							}
, 							{
								"box" : 								{
									"id" : "obj-21",
									"maxclass" : "newobj",
									"numinlets" : 2,
									"numoutlets" : 1,
									"outlettype" : [ "" ],
									"patching_rect" : [ 167.199999999999989, 549.5, 66.0, 22.0 ],
									"text" : "pak f f"
								}

							}
, 							{
								"box" : 								{
									"id" : "obj-19",
									"maxclass" : "newobj",
									"numinlets" : 1,
									"numoutlets" : 0,
									"patching_rect" : [ 167.199999999999989, 576.5, 65.0, 22.0 ],
									"text" : "s start-end"
								}

							}
, 							{
								"box" : 								{
									"bgmode" : 0,
									"border" : 0,
									"clickthrough" : 0,
									"embed" : 1,
									"enablehscroll" : 0,
									"enablevscroll" : 0,
									"id" : "obj-23",
									"lockeddragscroll" : 0,
									"lockedsize" : 0,
									"maxclass" : "bpatcher",
									"numinlets" : 0,
									"numoutlets" : 1,
									"offset" : [ 0.0, 0.0 ],
									"outlettype" : [ "" ],
									"patcher" : 									{
										"fileversion" : 1,
										"appversion" : 										{
											"major" : 8,
											"minor" : 5,
											"revision" : 2,
											"architecture" : "x64",
											"modernui" : 1
										}
,
										"classnamespace" : "box",
										"openrect" : [ 177.0, 222.0, 188.0, 237.0 ],
										"bglocked" : 0,
										"openinpresentation" : 1,
										"default_fontsize" : 12.0,
										"default_fontface" : 0,
										"default_fontname" : "Arial",
										"gridonopen" : 1,
										"gridsize" : [ 15.0, 15.0 ],
										"gridsnaponopen" : 1,
										"objectsnaponopen" : 1,
										"statusbarvisible" : 2,
										"toolbarvisible" : 1,
										"lefttoolbarpinned" : 0,
										"toptoolbarpinned" : 0,
										"righttoolbarpinned" : 0,
										"bottomtoolbarpinned" : 0,
										"toolbars_unpinned_last_save" : 0,
										"tallnewobj" : 0,
										"boxanimatetime" : 200,
										"enablehscroll" : 1,
										"enablevscroll" : 1,
										"devicewidth" : 188.0,
										"description" : "",
										"digest" : "",
										"tags" : "",
										"style" : "",
										"subpatcher_template" : "",
										"assistshowspatchername" : 0,
										"boxes" : [ 											{
												"box" : 												{
													"bkgndpict" : "wfmodes.png",
													"bottomvalue" : 3,
													"id" : "obj-11",
													"imagemask" : 1,
													"inactiveimage" : 0,
													"knobpict" : "wfknob.png",
													"maxclass" : "pictslider",
													"movehorizontal" : 0,
													"numinlets" : 2,
													"numoutlets" : 2,
													"outlettype" : [ "int", "int" ],
													"parameter_enable" : 0,
													"patching_rect" : [ 13.0, 32.5, 19.0, 76.0 ],
													"presentation" : 1,
													"presentation_rect" : [ 1.0, 0.5, 19.0, 76.0 ],
													"rightvalue" : 0,
													"topvalue" : 0
												}

											}
, 											{
												"box" : 												{
													"fontname" : "Arial",
													"fontsize" : 11.595186999999999,
													"id" : "obj-15",
													"maxclass" : "newobj",
													"numinlets" : 1,
													"numoutlets" : 2,
													"outlettype" : [ "", "" ],
													"patcher" : 													{
														"fileversion" : 1,
														"appversion" : 														{
															"major" : 8,
															"minor" : 5,
															"revision" : 2,
															"architecture" : "x64",
															"modernui" : 1
														}
,
														"classnamespace" : "box",
														"rect" : [ 175.0, 158.0, 298.0, 526.0 ],
														"bglocked" : 0,
														"openinpresentation" : 0,
														"default_fontsize" : 10.0,
														"default_fontface" : 0,
														"default_fontname" : "Arial",
														"gridonopen" : 1,
														"gridsize" : [ 15.0, 15.0 ],
														"gridsnaponopen" : 1,
														"objectsnaponopen" : 1,
														"statusbarvisible" : 2,
														"toolbarvisible" : 1,
														"lefttoolbarpinned" : 0,
														"toptoolbarpinned" : 0,
														"righttoolbarpinned" : 0,
														"bottomtoolbarpinned" : 0,
														"toolbars_unpinned_last_save" : 0,
														"tallnewobj" : 0,
														"boxanimatetime" : 200,
														"enablehscroll" : 1,
														"enablevscroll" : 1,
														"devicewidth" : 0.0,
														"description" : "",
														"digest" : "",
														"tags" : "",
														"style" : "",
														"subpatcher_template" : "",
														"assistshowspatchername" : 0,
														"boxes" : [ 															{
																"box" : 																{
																	"id" : "obj-24",
																	"maxclass" : "comment",
																	"numinlets" : 1,
																	"numoutlets" : 0,
																	"patching_rect" : [ 17.0, 9.0, 137.0, 18.0 ],
																	"style" : "helpfile_label",
																	"text" : "(special thanks to Pure)"
																}

															}
, 															{
																"box" : 																{
																	"comment" : "",
																	"id" : "obj-14",
																	"index" : 2,
																	"maxclass" : "outlet",
																	"numinlets" : 1,
																	"numoutlets" : 0,
																	"patching_rect" : [ 225.0, 476.0, 25.0, 25.0 ]
																}

															}
, 															{
																"box" : 																{
																	"fontsize" : 12.0,
																	"id" : "obj-13",
																	"maxclass" : "message",
																	"numinlets" : 2,
																	"numoutlets" : 1,
																	"outlettype" : [ "" ],
																	"patching_rect" : [ 225.0, 443.571411000000012, 44.0, 22.0 ],
																	"text" : "set $1"
																}

															}
, 															{
																"box" : 																{
																	"fontname" : "Arial",
																	"fontsize" : 12.0,
																	"id" : "obj-31",
																	"maxclass" : "newobj",
																	"numinlets" : 2,
																	"numoutlets" : 1,
																	"outlettype" : [ "int" ],
																	"patching_rect" : [ 77.5, 154.0, 35.0, 22.0 ],
																	"text" : "1"
																}

															}
, 															{
																"box" : 																{
																	"fontname" : "Arial",
																	"fontsize" : 12.0,
																	"id" : "obj-30",
																	"maxclass" : "newobj",
																	"numinlets" : 2,
																	"numoutlets" : 1,
																	"outlettype" : [ "int" ],
																	"patching_rect" : [ 20.0, 154.0, 35.0, 22.0 ],
																	"text" : "2"
																}

															}
, 															{
																"box" : 																{
																	"fontname" : "Arial",
																	"fontsize" : 12.0,
																	"id" : "obj-29",
																	"maxclass" : "newobj",
																	"numinlets" : 1,
																	"numoutlets" : 1,
																	"outlettype" : [ "bang" ],
																	"patching_rect" : [ 19.0, 38.0, 61.0, 22.0 ],
																	"text" : "loadbang"
																}

															}
, 															{
																"box" : 																{
																	"fontname" : "Arial",
																	"fontsize" : 12.0,
																	"id" : "obj-28",
																	"maxclass" : "newobj",
																	"numinlets" : 3,
																	"numoutlets" : 1,
																	"outlettype" : [ "" ],
																	"patching_rect" : [ 144.21875, 213.0, 60.929687999999999, 22.0 ],
																	"text" : "switch"
																}

															}
, 															{
																"box" : 																{
																	"fontname" : "Arial",
																	"fontsize" : 12.0,
																	"id" : "obj-25",
																	"maxclass" : "newobj",
																	"numinlets" : 3,
																	"numoutlets" : 3,
																	"outlettype" : [ "bang", "bang", "" ],
																	"patching_rect" : [ 20.0, 126.0, 134.0, 22.0 ],
																	"text" : "sel macintosh windows"
																}

															}
, 															{
																"box" : 																{
																	"fontname" : "Arial",
																	"fontsize" : 12.0,
																	"id" : "obj-22",
																	"maxclass" : "newobj",
																	"numinlets" : 0,
																	"numoutlets" : 1,
																	"outlettype" : [ "" ],
																	"patching_rect" : [ 20.0, 101.0, 106.0, 22.0 ],
																	"text" : "r #0_getsystem"
																}

															}
, 															{
																"box" : 																{
																	"fontname" : "Arial",
																	"fontsize" : 12.0,
																	"id" : "obj-21",
																	"linecount" : 2,
																	"maxclass" : "message",
																	"numinlets" : 2,
																	"numoutlets" : 1,
																	"outlettype" : [ "" ],
																	"patching_rect" : [ 19.0, 64.0, 183.0, 35.0 ],
																	"text" : ";\rmax getsystem #0_getsystem"
																}

															}
, 															{
																"box" : 																{
																	"fontname" : "Arial",
																	"fontsize" : 12.0,
																	"id" : "obj-1",
																	"maxclass" : "newobj",
																	"numinlets" : 2,
																	"numoutlets" : 1,
																	"outlettype" : [ "int" ],
																	"patching_rect" : [ 144.21875, 408.571411000000012, 32.0, 22.0 ],
																	"text" : "int"
																}

															}
, 															{
																"box" : 																{
																	"fontname" : "Arial",
																	"fontsize" : 12.0,
																	"id" : "obj-10",
																	"maxclass" : "newobj",
																	"numinlets" : 1,
																	"numoutlets" : 5,
																	"outlettype" : [ "int", "int", "int", "int", "int" ],
																	"patching_rect" : [ 121.25, 154.0, 105.53125, 22.0 ],
																	"text" : "modifiers 100"
																}

															}
, 															{
																"box" : 																{
																	"coll_data" : 																	{
																		"count" : 4,
																		"data" : [ 																			{
																				"key" : 0,
																				"value" : [ "mode", "select" ]
																			}
, 																			{
																				"key" : 1,
																				"value" : [ "mode", "loop" ]
																			}
, 																			{
																				"key" : 2,
																				"value" : [ "mode", "move" ]
																			}
, 																			{
																				"key" : 3,
																				"value" : [ "mode", "draw" ]
																			}
 ]
																	}
,
																	"fontname" : "Arial",
																	"fontsize" : 12.0,
																	"id" : "obj-2",
																	"maxclass" : "newobj",
																	"numinlets" : 1,
																	"numoutlets" : 4,
																	"outlettype" : [ "", "", "", "" ],
																	"patching_rect" : [ 144.21875, 443.571411000000012, 62.0, 22.0 ],
																	"saved_object_attributes" : 																	{
																		"embed" : 1,
																		"precision" : 6
																	}
,
																	"text" : "coll"
																}

															}
, 															{
																"box" : 																{
																	"fontname" : "Arial",
																	"fontsize" : 12.0,
																	"id" : "obj-3",
																	"maxclass" : "newobj",
																	"numinlets" : 2,
																	"numoutlets" : 1,
																	"outlettype" : [ "int" ],
																	"patching_rect" : [ 144.21875, 287.571411000000012, 32.0, 22.0 ],
																	"text" : "|"
																}

															}
, 															{
																"box" : 																{
																	"comment" : "waveform~ mode messages",
																	"id" : "obj-4",
																	"index" : 1,
																	"maxclass" : "inlet",
																	"numinlets" : 0,
																	"numoutlets" : 1,
																	"outlettype" : [ "int" ],
																	"patching_rect" : [ 32.5, 298.571411000000012, 25.0, 25.0 ]
																}

															}
, 															{
																"box" : 																{
																	"fontname" : "Arial",
																	"fontsize" : 12.0,
																	"id" : "obj-5",
																	"maxclass" : "newobj",
																	"numinlets" : 2,
																	"numoutlets" : 1,
																	"outlettype" : [ "int" ],
																	"patching_rect" : [ 207.78125, 213.0, 36.0, 22.0 ],
																	"text" : "<< 1"
																}

															}
, 															{
																"box" : 																{
																	"fontname" : "Arial",
																	"fontsize" : 12.0,
																	"id" : "obj-6",
																	"maxclass" : "newobj",
																	"numinlets" : 1,
																	"numoutlets" : 3,
																	"outlettype" : [ "", "int", "int" ],
																	"patching_rect" : [ 144.21875, 319.571411000000012, 51.0, 22.0 ],
																	"text" : "change"
																}

															}
, 															{
																"box" : 																{
																	"fontname" : "Arial",
																	"fontsize" : 12.0,
																	"id" : "obj-7",
																	"maxclass" : "newobj",
																	"numinlets" : 2,
																	"numoutlets" : 2,
																	"outlettype" : [ "bang", "" ],
																	"patching_rect" : [ 144.21875, 352.571411000000012, 99.78125, 22.0 ],
																	"text" : "select 0"
																}

															}
, 															{
																"box" : 																{
																	"fontname" : "Arial",
																	"fontsize" : 12.0,
																	"id" : "obj-8",
																	"maxclass" : "newobj",
																	"numinlets" : 2,
																	"numoutlets" : 1,
																	"outlettype" : [ "" ],
																	"patching_rect" : [ 144.21875, 253.571411000000012, 36.0, 22.0 ],
																	"text" : "pak"
																}

															}
, 															{
																"box" : 																{
																	"comment" : "",
																	"id" : "obj-9",
																	"index" : 1,
																	"maxclass" : "outlet",
																	"numinlets" : 1,
																	"numoutlets" : 0,
																	"patching_rect" : [ 144.21875, 476.0, 25.0, 25.0 ]
																}

															}
 ],
														"lines" : [ 															{
																"patchline" : 																{
																	"destination" : [ "obj-13", 0 ],
																	"order" : 0,
																	"source" : [ "obj-1", 0 ]
																}

															}
, 															{
																"patchline" : 																{
																	"destination" : [ "obj-2", 0 ],
																	"order" : 1,
																	"source" : [ "obj-1", 0 ]
																}

															}
, 															{
																"patchline" : 																{
																	"destination" : [ "obj-28", 2 ],
																	"source" : [ "obj-10", 3 ]
																}

															}
, 															{
																"patchline" : 																{
																	"destination" : [ "obj-28", 1 ],
																	"source" : [ "obj-10", 2 ]
																}

															}
, 															{
																"patchline" : 																{
																	"destination" : [ "obj-5", 0 ],
																	"source" : [ "obj-10", 4 ]
																}

															}
, 															{
																"patchline" : 																{
																	"destination" : [ "obj-14", 0 ],
																	"source" : [ "obj-13", 0 ]
																}

															}
, 															{
																"patchline" : 																{
																	"destination" : [ "obj-9", 0 ],
																	"source" : [ "obj-2", 0 ]
																}

															}
, 															{
																"patchline" : 																{
																	"destination" : [ "obj-25", 0 ],
																	"source" : [ "obj-22", 0 ]
																}

															}
, 															{
																"patchline" : 																{
																	"destination" : [ "obj-30", 0 ],
																	"source" : [ "obj-25", 0 ]
																}

															}
, 															{
																"patchline" : 																{
																	"destination" : [ "obj-31", 0 ],
																	"source" : [ "obj-25", 1 ]
																}

															}
, 															{
																"patchline" : 																{
																	"destination" : [ "obj-8", 0 ],
																	"source" : [ "obj-28", 0 ]
																}

															}
, 															{
																"patchline" : 																{
																	"destination" : [ "obj-21", 0 ],
																	"source" : [ "obj-29", 0 ]
																}

															}
, 															{
																"patchline" : 																{
																	"destination" : [ "obj-6", 0 ],
																	"source" : [ "obj-3", 0 ]
																}

															}
, 															{
																"patchline" : 																{
																	"destination" : [ "obj-28", 0 ],
																	"source" : [ "obj-30", 0 ]
																}

															}
, 															{
																"patchline" : 																{
																	"destination" : [ "obj-28", 0 ],
																	"source" : [ "obj-31", 0 ]
																}

															}
, 															{
																"patchline" : 																{
																	"destination" : [ "obj-1", 0 ],
																	"source" : [ "obj-4", 0 ]
																}

															}
, 															{
																"patchline" : 																{
																	"destination" : [ "obj-8", 1 ],
																	"source" : [ "obj-5", 0 ]
																}

															}
, 															{
																"patchline" : 																{
																	"destination" : [ "obj-7", 0 ],
																	"source" : [ "obj-6", 0 ]
																}

															}
, 															{
																"patchline" : 																{
																	"destination" : [ "obj-1", 0 ],
																	"source" : [ "obj-7", 0 ]
																}

															}
, 															{
																"patchline" : 																{
																	"destination" : [ "obj-13", 0 ],
																	"order" : 0,
																	"source" : [ "obj-7", 1 ]
																}

															}
, 															{
																"patchline" : 																{
																	"destination" : [ "obj-2", 0 ],
																	"order" : 1,
																	"source" : [ "obj-7", 1 ]
																}

															}
, 															{
																"patchline" : 																{
																	"destination" : [ "obj-3", 0 ],
																	"source" : [ "obj-8", 0 ]
																}

															}
 ]
													}
,
													"patching_rect" : [ 15.0, 127.5, 54.0, 21.0 ],
													"saved_object_attributes" : 													{
														"description" : "",
														"digest" : "",
														"fontsize" : 10.0,
														"globalpatchername" : "",
														"tags" : ""
													}
,
													"text" : "p wfkeys"
												}

											}
, 											{
												"box" : 												{
													"comment" : "",
													"id" : "obj-22",
													"index" : 1,
													"maxclass" : "outlet",
													"numinlets" : 1,
													"numoutlets" : 0,
													"patching_rect" : [ 15.0, 164.0, 30.0, 30.0 ]
												}

											}
 ],
										"lines" : [ 											{
												"patchline" : 												{
													"destination" : [ "obj-15", 0 ],
													"source" : [ "obj-11", 1 ]
												}

											}
, 											{
												"patchline" : 												{
													"destination" : [ "obj-11", 1 ],
													"midpoints" : [ 59.5, 164.5, 110.0, 164.5, 110.0, 22.5, 24.5, 22.5 ],
													"source" : [ "obj-15", 1 ]
												}

											}
, 											{
												"patchline" : 												{
													"destination" : [ "obj-22", 0 ],
													"source" : [ "obj-15", 0 ]
												}

											}
 ]
									}
,
									"patching_rect" : [ 44.0, 481.0, 21.0, 79.0 ],
									"viewvisibility" : 1
								}

							}
, 							{
								"box" : 								{
									"id" : "obj-15",
									"maxclass" : "newobj",
									"numinlets" : 1,
									"numoutlets" : 1,
									"outlettype" : [ "" ],
									"patching_rect" : [ 72.0, 402.5, 166.0, 22.0 ],
									"text" : "loadmess buffername sound2"
								}

							}
, 							{
								"box" : 								{
									"buffername" : "sound2",
									"id" : "obj-14",
									"maxclass" : "waveform~",
									"numinlets" : 5,
									"numoutlets" : 6,
									"outlettype" : [ "float", "float", "float", "float", "list", "" ],
									"patching_rect" : [ 72.0, 477.5, 256.0, 64.0 ],
									"setmode" : 3
								}

							}
, 							{
								"box" : 								{
									"hidden" : 1,
									"id" : "obj-71",
									"maxclass" : "newobj",
									"numinlets" : 1,
									"numoutlets" : 1,
									"outlettype" : [ "" ],
									"patching_rect" : [ 405.0, 107.5, 87.0, 22.0 ],
									"text" : "loadmess 220."
								}

							}
, 							{
								"box" : 								{
									"id" : "obj-27",
									"lastchannelcount" : 0,
									"maxclass" : "live.gain~",
									"numinlets" : 2,
									"numoutlets" : 5,
									"outlettype" : [ "signal", "signal", "", "float", "list" ],
									"parameter_enable" : 1,
									"patching_rect" : [ 405.0, 387.0, 48.0, 136.0 ],
									"saved_attribute_attributes" : 									{
										"valueof" : 										{
											"parameter_longname" : "live.gain~[5]",
											"parameter_mmax" : 6.0,
											"parameter_mmin" : -70.0,
											"parameter_shortname" : "live.gain~[4]",
											"parameter_type" : 0,
											"parameter_unitstyle" : 4
										}

									}
,
									"varname" : "live.gain~"
								}

							}
, 							{
								"box" : 								{
									"id" : "obj-11",
									"maxclass" : "newobj",
									"numinlets" : 3,
									"numoutlets" : 1,
									"outlettype" : [ "signal" ],
									"patching_rect" : [ 405.0, 263.0, 159.0, 22.0 ],
									"text" : "wave~ sound2"
								}

							}
, 							{
								"box" : 								{
									"format" : 6,
									"id" : "obj-10",
									"maxclass" : "flonum",
									"numinlets" : 1,
									"numoutlets" : 2,
									"outlettype" : [ "", "bang" ],
									"parameter_enable" : 0,
									"patching_rect" : [ 405.0, 141.0, 50.0, 22.0 ]
								}

							}
, 							{
								"box" : 								{
									"id" : "obj-4",
									"maxclass" : "newobj",
									"numinlets" : 2,
									"numoutlets" : 1,
									"outlettype" : [ "signal" ],
									"patching_rect" : [ 405.0, 210.0, 52.0, 22.0 ],
									"text" : "phasor~"
								}

							}
, 							{
								"box" : 								{
									"id" : "obj-9",
									"maxclass" : "newobj",
									"numinlets" : 2,
									"numoutlets" : 0,
									"patching_rect" : [ 405.0, 549.0, 35.0, 22.0 ],
									"text" : "dac~"
								}

							}
, 							{
								"box" : 								{
									"id" : "obj-67",
									"maxclass" : "newobj",
									"numinlets" : 1,
									"numoutlets" : 2,
									"outlettype" : [ "bang", "int" ],
									"patching_rect" : [ 75.0, 302.5, 84.5, 22.0 ],
									"text" : "t b i"
								}

							}
, 							{
								"box" : 								{
									"id" : "obj-65",
									"maxclass" : "newobj",
									"numinlets" : 1,
									"numoutlets" : 2,
									"outlettype" : [ "dump", "int" ],
									"patching_rect" : [ 216.0, 258.5, 55.0, 22.0 ],
									"text" : "t dump 0"
								}

							}
, 							{
								"box" : 								{
									"id" : "obj-64",
									"maxclass" : "newobj",
									"numinlets" : 5,
									"numoutlets" : 4,
									"outlettype" : [ "int", "", "", "int" ],
									"patching_rect" : [ 75.0, 335.5, 61.0, 22.0 ],
									"text" : "counter"
								}

							}
, 							{
								"box" : 								{
									"color" : [ 0.83921568627451, 0.423529411764706, 0.023529411764706, 1.0 ],
									"id" : "obj-60",
									"maxclass" : "newobj",
									"numinlets" : 3,
									"numoutlets" : 1,
									"outlettype" : [ "float" ],
									"patching_rect" : [ 75.0, 368.5, 150.0, 22.0 ],
									"text" : "peek~ sound2"
								}

							}
, 							{
								"box" : 								{
									"id" : "obj-58",
									"maxclass" : "newobj",
									"numinlets" : 6,
									"numoutlets" : 1,
									"outlettype" : [ "" ],
									"patching_rect" : [ 140.5, 335.5, 114.0, 22.0 ],
									"text" : "scale 0 65534 -1. 1."
								}

							}
, 							{
								"box" : 								{
									"id" : "obj-35",
									"maxclass" : "itable",
									"name" : "",
									"numinlets" : 2,
									"numoutlets" : 2,
									"outlettype" : [ "int", "bang" ],
									"parameter_enable" : 0,
									"patching_rect" : [ 75.0, 107.5, 160.0, 145.0 ],
									"range" : 65535,
									"size" : 367,
									"table_data" : [ 0, 2041, 2186, 2331, 2476, 2621, 2765, 52202, 51976, 51750, 19999, 20338, 20677, 21016, 21355, 21694, 22033, 22372, 22711, 23050, 23389, 23920, 24113, 24306, 24499, 24691, 24884, 25077, 25270, 25462, 25655, 25848, 26041, 26233, 26426, 26619, 26812, 27004, 27197, 27390, 27583, 27775, 27968, 28161, 28354, 28546, 28739, 28932, 29125, 21769, 22070, 22598, 22824, 23050, 23276, 23502, 24212, 24696, 25180, 25664, 26149, 26633, 27117, 27601, 28085, 28570, 29054, 29538, 30022, 30733, 30959, 31185, 31411, 31637, 32043, 32224, 32405, 32586, 33162, 33558, 33953, 34349, 34744, 35140, 35535, 35992, 36054, 36115, 36177, 36239, 36300, 36362, 36424, 36485, 36547, 36609, 36670, 36732, 36793, 36855, 36917, 36978, 37040, 37102, 37163, 37225, 37287, 37287, 37287, 37287, 37287, 37287, 37287, 37287, 37287, 37287, 37204, 37122, 37040, 36958, 36876, 36793, 36711, 36629, 36547, 36465, 36383, 36300, 36218, 36136, 36054, 35972, 35889, 35807, 35725, 35643, 35561, 35064, 34568, 34071, 33575, 33078, 32582, 32085, 31589, 31092, 30596, 30099, 28811, 27523, 26235, 24947, 17400, 16767, 16134, 15501, 14868, 14728, 14589, 14450, 14310, 14171, 14032, 13892, 13753, 13614, 13475, 13335, 13196, 13057, 12917, 12778, 12639, 12500, 12360, 12221, 12082, 11942, 11803, 11664, 11644, 11625, 11606, 11587, 11568, 11549, 11530, 11511, 11492, 11473, 11454, 11435, 11416, 11397, 11378, 11358, 11339, 11320, 11301, 11282, 11263, 11244, 11225, 11206, 11187, 11168, 11149, 11130, 11111, 11212, 11333, 11454, 11575, 11696, 11817, 11938, 12059, 12180, 12301, 12422, 12543, 12664, 12784, 12905, 13026, 13147, 13268, 13389, 13510, 13631, 13752, 13873, 13994, 14115, 14487, 14738, 14989, 15240, 15491, 15742, 15993, 16244, 16496, 16747, 16998, 17249, 17500, 17751, 18002, 18253, 18504, 19253, 19750, 20247, 20744, 21241, 21739, 22236, 22733, 23230, 24631, 25535, 26439, 27343, 28774, 29301, 29829, 30356, 30883, 31561, 31712, 31893, 31923, 31953, 31983, 32013, 32043, 32073, 32104, 32134, 32164, 32194, 32224, 32254, 32284, 32315, 32315, 32315, 32315, 32315, 32315, 32315, 32315, 32315, 32315, 32315, 32315, 32315, 32315, 32315, 32315, 32315, 32315, 32315, 32315, 32315, 32315, 32296, 32277, 32258, 32239, 32220, 32202, 32183, 32164, 32145, 32126, 32107, 32089, 32070, 32051, 32032, 32013, 31994, 31976, 31957, 31938, 31919, 31900, 31881, 31879, 31878, 31877, 31876, 31875, 31874, 31873, 31872, 31871, 31870, 31869, 31868, 31867, 31866, 31865, 32089, 32315, 32541, 32767, 32993, 33219, 33445, 33671, 33897, 34123, 34349, 34914, 35253, 35592, 35931, 36270, 36609, 36948, 37467, 37648, 37829, 38010, 38191 ]
								}

							}
 ],
						"lines" : [ 							{
								"patchline" : 								{
									"destination" : [ "obj-4", 0 ],
									"source" : [ "obj-10", 0 ]
								}

							}
, 							{
								"patchline" : 								{
									"destination" : [ "obj-27", 0 ],
									"source" : [ "obj-11", 0 ]
								}

							}
, 							{
								"patchline" : 								{
									"destination" : [ "obj-21", 1 ],
									"order" : 1,
									"source" : [ "obj-14", 3 ]
								}

							}
, 							{
								"patchline" : 								{
									"destination" : [ "obj-21", 0 ],
									"order" : 1,
									"source" : [ "obj-14", 2 ]
								}

							}
, 							{
								"patchline" : 								{
									"destination" : [ "obj-31", 0 ],
									"order" : 0,
									"source" : [ "obj-14", 2 ]
								}

							}
, 							{
								"patchline" : 								{
									"destination" : [ "obj-34", 0 ],
									"order" : 0,
									"source" : [ "obj-14", 3 ]
								}

							}
, 							{
								"patchline" : 								{
									"destination" : [ "obj-14", 0 ],
									"source" : [ "obj-15", 0 ]
								}

							}
, 							{
								"patchline" : 								{
									"destination" : [ "obj-19", 0 ],
									"source" : [ "obj-21", 0 ]
								}

							}
, 							{
								"patchline" : 								{
									"destination" : [ "obj-24", 0 ],
									"source" : [ "obj-22", 0 ]
								}

							}
, 							{
								"patchline" : 								{
									"destination" : [ "obj-14", 0 ],
									"source" : [ "obj-23", 0 ]
								}

							}
, 							{
								"patchline" : 								{
									"destination" : [ "obj-26", 0 ],
									"source" : [ "obj-24", 1 ]
								}

							}
, 							{
								"patchline" : 								{
									"destination" : [ "obj-28", 0 ],
									"source" : [ "obj-24", 0 ]
								}

							}
, 							{
								"patchline" : 								{
									"destination" : [ "obj-11", 2 ],
									"source" : [ "obj-26", 0 ]
								}

							}
, 							{
								"patchline" : 								{
									"destination" : [ "obj-9", 1 ],
									"order" : 0,
									"source" : [ "obj-27", 0 ]
								}

							}
, 							{
								"patchline" : 								{
									"destination" : [ "obj-9", 0 ],
									"order" : 1,
									"source" : [ "obj-27", 0 ]
								}

							}
, 							{
								"patchline" : 								{
									"destination" : [ "obj-11", 1 ],
									"source" : [ "obj-28", 0 ]
								}

							}
, 							{
								"patchline" : 								{
									"destination" : [ "obj-33", 0 ],
									"source" : [ "obj-31", 0 ]
								}

							}
, 							{
								"patchline" : 								{
									"destination" : [ "obj-14", 2 ],
									"source" : [ "obj-33", 0 ]
								}

							}
, 							{
								"patchline" : 								{
									"destination" : [ "obj-36", 0 ],
									"source" : [ "obj-34", 0 ]
								}

							}
, 							{
								"patchline" : 								{
									"destination" : [ "obj-65", 0 ],
									"source" : [ "obj-35", 1 ]
								}

							}
, 							{
								"patchline" : 								{
									"destination" : [ "obj-67", 0 ],
									"source" : [ "obj-35", 0 ]
								}

							}
, 							{
								"patchline" : 								{
									"destination" : [ "obj-14", 3 ],
									"source" : [ "obj-36", 0 ]
								}

							}
, 							{
								"patchline" : 								{
									"destination" : [ "obj-11", 0 ],
									"source" : [ "obj-4", 0 ]
								}

							}
, 							{
								"patchline" : 								{
									"destination" : [ "obj-60", 1 ],
									"source" : [ "obj-58", 0 ]
								}

							}
, 							{
								"patchline" : 								{
									"destination" : [ "obj-60", 0 ],
									"source" : [ "obj-64", 0 ]
								}

							}
, 							{
								"patchline" : 								{
									"destination" : [ "obj-35", 0 ],
									"midpoints" : [ 225.5, 290.5, 64.0, 290.5, 64.0, 96.5, 84.5, 96.5 ],
									"source" : [ "obj-65", 0 ]
								}

							}
, 							{
								"patchline" : 								{
									"destination" : [ "obj-64", 2 ],
									"midpoints" : [ 261.5, 327.5, 105.5, 327.5 ],
									"source" : [ "obj-65", 1 ]
								}

							}
, 							{
								"patchline" : 								{
									"destination" : [ "obj-58", 0 ],
									"source" : [ "obj-67", 1 ]
								}

							}
, 							{
								"patchline" : 								{
									"destination" : [ "obj-64", 0 ],
									"source" : [ "obj-67", 0 ]
								}

							}
, 							{
								"patchline" : 								{
									"destination" : [ "obj-10", 0 ],
									"hidden" : 1,
									"source" : [ "obj-71", 0 ]
								}

							}
 ]
					}
,
					"patching_rect" : [ 761.0, 19.0, 52.0, 22.0 ],
					"saved_object_attributes" : 					{
						"description" : "",
						"digest" : "",
						"globalpatchername" : "",
						"tags" : ""
					}
,
					"text" : "p peek~",
					"varname" : "peek~"
				}

			}
, 			{
				"box" : 				{
					"id" : "obj-11",
					"maxclass" : "newobj",
					"numinlets" : 0,
					"numoutlets" : 0,
					"patcher" : 					{
						"fileversion" : 1,
						"appversion" : 						{
							"major" : 8,
							"minor" : 5,
							"revision" : 2,
							"architecture" : "x64",
							"modernui" : 1
						}
,
						"classnamespace" : "box",
						"rect" : [ 0.0, 26.0, 962.0, 626.0 ],
						"bglocked" : 0,
						"openinpresentation" : 0,
						"default_fontsize" : 12.0,
						"default_fontface" : 0,
						"default_fontname" : "Arial",
						"gridonopen" : 1,
						"gridsize" : [ 15.0, 15.0 ],
						"gridsnaponopen" : 1,
						"objectsnaponopen" : 1,
						"statusbarvisible" : 2,
						"toolbarvisible" : 1,
						"lefttoolbarpinned" : 0,
						"toptoolbarpinned" : 0,
						"righttoolbarpinned" : 0,
						"bottomtoolbarpinned" : 0,
						"toolbars_unpinned_last_save" : 0,
						"tallnewobj" : 0,
						"boxanimatetime" : 200,
						"enablehscroll" : 1,
						"enablevscroll" : 1,
						"devicewidth" : 0.0,
						"description" : "",
						"digest" : "",
						"tags" : "",
						"style" : "",
						"subpatcher_template" : "",
						"showontab" : 1,
						"assistshowspatchername" : 0,
						"boxes" : [ 							{
								"box" : 								{
									"hidden" : 1,
									"id" : "obj-11",
									"maxclass" : "newobj",
									"numinlets" : 1,
									"numoutlets" : 4,
									"outlettype" : [ "", "", "", "" ],
									"patching_rect" : [ 218.0, 399.0, 56.0, 22.0 ],
									"restore" : 									{
										"live.gain~" : [ -70.0 ]
									}
,
									"text" : "autopattr",
									"varname" : "u126006288"
								}

							}
, 							{
								"box" : 								{
									"id" : "obj-5",
									"maxclass" : "live.scope~",
									"numinlets" : 2,
									"numoutlets" : 1,
									"outlettype" : [ "bang" ],
									"patching_rect" : [ 392.0, 275.0, 184.0, 68.0 ]
								}

							}
, 							{
								"box" : 								{
									"id" : "obj-6",
									"maxclass" : "live.scope~",
									"numinlets" : 2,
									"numoutlets" : 1,
									"outlettype" : [ "bang" ],
									"patching_rect" : [ 135.0, 173.0, 184.0, 68.0 ]
								}

							}
, 							{
								"box" : 								{
									"id" : "obj-17",
									"lastchannelcount" : 0,
									"maxclass" : "live.gain~",
									"numinlets" : 2,
									"numoutlets" : 5,
									"orientation" : 1,
									"outlettype" : [ "signal", "signal", "", "float", "list" ],
									"parameter_enable" : 1,
									"patching_rect" : [ 64.0, 311.0, 136.0, 47.0 ],
									"saved_attribute_attributes" : 									{
										"valueof" : 										{
											"parameter_longname" : "live.gain~[9]",
											"parameter_mmax" : 6.0,
											"parameter_mmin" : -70.0,
											"parameter_shortname" : "live.gain~[6]",
											"parameter_type" : 0,
											"parameter_unitstyle" : 4
										}

									}
,
									"varname" : "live.gain~"
								}

							}
, 							{
								"box" : 								{
									"bubble" : 1,
									"id" : "obj-26",
									"linecount" : 3,
									"maxclass" : "comment",
									"numinlets" : 1,
									"numoutlets" : 0,
									"patching_rect" : [ 213.0, 260.5, 152.0, 51.0 ],
									"text" : "the second argument (\"sound1\") refers to the buffer we'll play back"
								}

							}
, 							{
								"box" : 								{
									"id" : "obj-9",
									"maxclass" : "ezdac~",
									"numinlets" : 2,
									"numoutlets" : 0,
									"patching_rect" : [ 64.0, 370.0, 45.0, 45.0 ]
								}

							}
, 							{
								"box" : 								{
									"color" : [ 0.83921568627451, 0.423529411764706, 0.023529411764706, 1.0 ],
									"id" : "obj-4",
									"maxclass" : "newobj",
									"numinlets" : 3,
									"numoutlets" : 2,
									"outlettype" : [ "signal", "signal" ],
									"patching_rect" : [ 64.0, 275.0, 143.0, 22.0 ],
									"text" : "groove~ sound1 @loop 1"
								}

							}
, 							{
								"box" : 								{
									"bubble" : 1,
									"id" : "obj-14",
									"maxclass" : "comment",
									"numinlets" : 1,
									"numoutlets" : 0,
									"patching_rect" : [ 116.0, 124.0, 144.0, 24.0 ],
									"text" : "frequency in Hz"
								}

							}
, 							{
								"box" : 								{
									"color" : [ 0.83921568627451, 0.423529411764706, 0.023529411764706, 1.0 ],
									"id" : "obj-3",
									"maxclass" : "newobj",
									"numinlets" : 2,
									"numoutlets" : 1,
									"outlettype" : [ "signal" ],
									"patching_rect" : [ 64.0, 167.0, 52.0, 22.0 ],
									"text" : "phasor~"
								}

							}
, 							{
								"box" : 								{
									"format" : 6,
									"id" : "obj-8",
									"maxclass" : "flonum",
									"numinlets" : 1,
									"numoutlets" : 2,
									"outlettype" : [ "", "bang" ],
									"parameter_enable" : 0,
									"patching_rect" : [ 64.0, 124.0, 50.0, 22.0 ]
								}

							}
, 							{
								"box" : 								{
									"fontsize" : 24.0,
									"id" : "obj-2",
									"maxclass" : "comment",
									"numinlets" : 1,
									"numoutlets" : 0,
									"patching_rect" : [ 34.0, 18.0, 358.0, 33.0 ],
									"text" : "Phasor~"
								}

							}
, 							{
								"box" : 								{
									"id" : "obj-7",
									"maxclass" : "comment",
									"numinlets" : 1,
									"numoutlets" : 0,
									"patching_rect" : [ 34.0, 79.0, 529.0, 20.0 ],
									"text" : "phasor~ is a sort of utility signal used to drive other MSP processes"
								}

							}
, 							{
								"box" : 								{
									"fontsize" : 16.0,
									"id" : "obj-1",
									"maxclass" : "comment",
									"numinlets" : 1,
									"numoutlets" : 0,
									"patching_rect" : [ 34.0, 53.0, 529.0, 24.0 ],
									"text" : "a ramping \"sawtooth\" signal that goes from 0. 1."
								}

							}
 ],
						"lines" : [ 							{
								"patchline" : 								{
									"destination" : [ "obj-9", 1 ],
									"order" : 0,
									"source" : [ "obj-17", 0 ]
								}

							}
, 							{
								"patchline" : 								{
									"destination" : [ "obj-9", 0 ],
									"order" : 1,
									"source" : [ "obj-17", 0 ]
								}

							}
, 							{
								"patchline" : 								{
									"destination" : [ "obj-4", 0 ],
									"order" : 1,
									"source" : [ "obj-3", 0 ]
								}

							}
, 							{
								"patchline" : 								{
									"destination" : [ "obj-6", 0 ],
									"order" : 0,
									"source" : [ "obj-3", 0 ]
								}

							}
, 							{
								"patchline" : 								{
									"destination" : [ "obj-17", 0 ],
									"order" : 1,
									"source" : [ "obj-4", 0 ]
								}

							}
, 							{
								"patchline" : 								{
									"destination" : [ "obj-5", 0 ],
									"order" : 0,
									"source" : [ "obj-4", 0 ]
								}

							}
, 							{
								"patchline" : 								{
									"destination" : [ "obj-3", 0 ],
									"source" : [ "obj-8", 0 ]
								}

							}
 ]
					}
,
					"patching_rect" : [ 432.0, 20.0, 62.0, 22.0 ],
					"saved_object_attributes" : 					{
						"description" : "",
						"digest" : "",
						"globalpatchername" : "",
						"tags" : ""
					}
,
					"text" : "p phasor~",
					"varname" : "phasor~"
				}

			}
, 			{
				"box" : 				{
					"id" : "obj-10",
					"maxclass" : "newobj",
					"numinlets" : 0,
					"numoutlets" : 0,
					"patcher" : 					{
						"fileversion" : 1,
						"appversion" : 						{
							"major" : 8,
							"minor" : 5,
							"revision" : 2,
							"architecture" : "x64",
							"modernui" : 1
						}
,
						"classnamespace" : "box",
						"rect" : [ 0.0, 26.0, 962.0, 626.0 ],
						"bglocked" : 0,
						"openinpresentation" : 0,
						"default_fontsize" : 12.0,
						"default_fontface" : 0,
						"default_fontname" : "Arial",
						"gridonopen" : 1,
						"gridsize" : [ 15.0, 15.0 ],
						"gridsnaponopen" : 1,
						"objectsnaponopen" : 1,
						"statusbarvisible" : 2,
						"toolbarvisible" : 1,
						"lefttoolbarpinned" : 0,
						"toptoolbarpinned" : 0,
						"righttoolbarpinned" : 0,
						"bottomtoolbarpinned" : 0,
						"toolbars_unpinned_last_save" : 0,
						"tallnewobj" : 0,
						"boxanimatetime" : 200,
						"enablehscroll" : 1,
						"enablevscroll" : 1,
						"devicewidth" : 0.0,
						"description" : "",
						"digest" : "",
						"tags" : "",
						"style" : "",
						"subpatcher_template" : "",
						"showontab" : 1,
						"assistshowspatchername" : 0,
						"boxes" : [ 							{
								"box" : 								{
									"fontsize" : 24.0,
									"id" : "obj-18",
									"maxclass" : "comment",
									"numinlets" : 1,
									"numoutlets" : 0,
									"patching_rect" : [ 41.0, 13.0, 358.0, 33.0 ],
									"text" : "wave~"
								}

							}
, 							{
								"box" : 								{
									"id" : "obj-17",
									"maxclass" : "live.scope~",
									"numinlets" : 2,
									"numoutlets" : 1,
									"outlettype" : [ "bang" ],
									"patching_rect" : [ 641.5, 245.0, 230.0, 36.0 ]
								}

							}
, 							{
								"box" : 								{
									"id" : "obj-15",
									"maxclass" : "live.scope~",
									"numinlets" : 2,
									"numoutlets" : 1,
									"outlettype" : [ "bang" ],
									"patching_rect" : [ 662.0, 430.0, 230.0, 36.0 ]
								}

							}
, 							{
								"box" : 								{
									"id" : "obj-16",
									"linecount" : 5,
									"maxclass" : "comment",
									"numinlets" : 1,
									"numoutlets" : 0,
									"patching_rect" : [ 681.5, 302.0, 150.0, 74.0 ],
									"text" : "once you get a sound going, go back over to the menu and pick a different waveform and here a different sound"
								}

							}
, 							{
								"box" : 								{
									"bubble" : 1,
									"id" : "obj-14",
									"linecount" : 2,
									"maxclass" : "comment",
									"numinlets" : 1,
									"numoutlets" : 0,
									"patching_rect" : [ 212.0, 324.5, 150.0, 37.0 ],
									"text" : "length of the sample in milliseconds"
								}

							}
, 							{
								"box" : 								{
									"id" : "obj-13",
									"maxclass" : "message",
									"numinlets" : 2,
									"numoutlets" : 1,
									"outlettype" : [ "" ],
									"patching_rect" : [ 121.0, 332.0, 82.0, 22.0 ],
									"text" : "7.645833"
								}

							}
, 							{
								"box" : 								{
									"bubble" : 1,
									"id" : "obj-6",
									"linecount" : 3,
									"maxclass" : "comment",
									"numinlets" : 1,
									"numoutlets" : 0,
									"patching_rect" : [ 227.0, 266.5, 150.0, 51.0 ],
									"text" : "info~ gives us... info about the contents of the buffer"
								}

							}
, 							{
								"box" : 								{
									"id" : "obj-5",
									"maxclass" : "newobj",
									"numinlets" : 1,
									"numoutlets" : 2,
									"outlettype" : [ "bang", "" ],
									"patching_rect" : [ 121.0, 184.0, 38.5, 22.0 ],
									"text" : "t b l"
								}

							}
, 							{
								"box" : 								{
									"id" : "obj-3",
									"maxclass" : "newobj",
									"numinlets" : 1,
									"numoutlets" : 9,
									"outlettype" : [ "float", "list", "float", "float", "float", "float", "float", "", "int" ],
									"patching_rect" : [ 121.0, 282.0, 103.0, 22.0 ],
									"text" : "info~ sound2"
								}

							}
, 							{
								"box" : 								{
									"id" : "obj-7",
									"linecount" : 3,
									"maxclass" : "comment",
									"numinlets" : 1,
									"numoutlets" : 0,
									"patching_rect" : [ 41.0, 81.0, 532.0, 47.0 ],
									"text" : "like groove~, wave refers to a named buffer and plays back the contents of that buffer. but it works differently. the input to groove~ is a static signal indicating playback speed, while the input to wave~ is a moving signal between 0. 1. that indicates the playback position."
								}

							}
, 							{
								"box" : 								{
									"fontsize" : 16.0,
									"id" : "obj-2",
									"maxclass" : "comment",
									"numinlets" : 1,
									"numoutlets" : 0,
									"patching_rect" : [ 41.0, 51.0, 529.0, 24.0 ],
									"text" : "wave~ is a phasor~ driven player of buffer audio"
								}

							}
, 							{
								"box" : 								{
									"bubble" : 1,
									"id" : "obj-1",
									"linecount" : 3,
									"maxclass" : "comment",
									"numinlets" : 1,
									"numoutlets" : 0,
									"patching_rect" : [ 223.0, 139.5, 152.0, 51.0 ],
									"text" : "these are single-cycle waveforms. pick one to load the buffer"
								}

							}
, 							{
								"box" : 								{
									"hidden" : 1,
									"id" : "obj-12",
									"maxclass" : "newobj",
									"numinlets" : 1,
									"numoutlets" : 4,
									"outlettype" : [ "", "", "", "" ],
									"patching_rect" : [ 41.0, 552.0, 56.0, 22.0 ],
									"restore" : 									{
										"live.gain~" : [ -70.0 ]
									}
,
									"text" : "autopattr",
									"varname" : "u160012651"
								}

							}
, 							{
								"box" : 								{
									"bubble" : 1,
									"id" : "obj-77",
									"linecount" : 4,
									"maxclass" : "comment",
									"numinlets" : 1,
									"numoutlets" : 0,
									"patching_rect" : [ 615.0, 163.0, 223.0, 64.0 ],
									"text" : "stick a bigger value like 220. in here. think of it as a frequency, aka the number of times we will loop the waveform per second"
								}

							}
, 							{
								"box" : 								{
									"bubble" : 1,
									"id" : "obj-76",
									"linecount" : 4,
									"maxclass" : "comment",
									"numinlets" : 1,
									"numoutlets" : 0,
									"patching_rect" : [ 302.0, 439.0, 150.0, 64.0 ],
									"text" : "this is a super short sample, and we're gonna loop it super fast!"
								}

							}
, 							{
								"box" : 								{
									"id" : "obj-75",
									"maxclass" : "newobj",
									"numinlets" : 1,
									"numoutlets" : 1,
									"outlettype" : [ "" ],
									"patching_rect" : [ 41.0, 397.0, 166.0, 22.0 ],
									"text" : "loadmess buffername sound2"
								}

							}
, 							{
								"box" : 								{
									"buffername" : "sound2",
									"id" : "obj-74",
									"maxclass" : "waveform~",
									"numinlets" : 5,
									"numoutlets" : 6,
									"outlettype" : [ "float", "float", "float", "float", "list", "" ],
									"patching_rect" : [ 41.0, 430.0, 256.0, 64.0 ]
								}

							}
, 							{
								"box" : 								{
									"hidden" : 1,
									"id" : "obj-71",
									"maxclass" : "newobj",
									"numinlets" : 1,
									"numoutlets" : 1,
									"outlettype" : [ "" ],
									"patching_rect" : [ 563.0, 147.0, 70.0, 22.0 ],
									"text" : "loadmess 0"
								}

							}
, 							{
								"box" : 								{
									"id" : "obj-27",
									"lastchannelcount" : 0,
									"maxclass" : "live.gain~",
									"numinlets" : 2,
									"numoutlets" : 5,
									"outlettype" : [ "signal", "signal", "", "float", "list" ],
									"parameter_enable" : 1,
									"patching_rect" : [ 563.0, 336.0, 48.0, 136.0 ],
									"saved_attribute_attributes" : 									{
										"valueof" : 										{
											"parameter_longname" : "live.gain~[4]",
											"parameter_mmax" : 6.0,
											"parameter_mmin" : -70.0,
											"parameter_shortname" : "live.gain~[4]",
											"parameter_type" : 0,
											"parameter_unitstyle" : 4
										}

									}
,
									"varname" : "live.gain~"
								}

							}
, 							{
								"box" : 								{
									"color" : [ 0.83921568627451, 0.423529411764706, 0.023529411764706, 1.0 ],
									"id" : "obj-11",
									"maxclass" : "newobj",
									"numinlets" : 3,
									"numoutlets" : 1,
									"outlettype" : [ "signal" ],
									"patching_rect" : [ 563.0, 306.0, 86.0, 22.0 ],
									"text" : "wave~ sound2"
								}

							}
, 							{
								"box" : 								{
									"format" : 6,
									"id" : "obj-10",
									"maxclass" : "flonum",
									"numinlets" : 1,
									"numoutlets" : 2,
									"outlettype" : [ "", "bang" ],
									"parameter_enable" : 0,
									"patching_rect" : [ 563.0, 184.0, 50.0, 22.0 ]
								}

							}
, 							{
								"box" : 								{
									"id" : "obj-4",
									"maxclass" : "newobj",
									"numinlets" : 2,
									"numoutlets" : 1,
									"outlettype" : [ "signal" ],
									"patching_rect" : [ 563.0, 245.0, 52.0, 22.0 ],
									"text" : "phasor~"
								}

							}
, 							{
								"box" : 								{
									"id" : "obj-9",
									"maxclass" : "newobj",
									"numinlets" : 2,
									"numoutlets" : 0,
									"patching_rect" : [ 563.0, 495.0, 35.0, 22.0 ],
									"text" : "dac~"
								}

							}
, 							{
								"box" : 								{
									"id" : "obj-34",
									"maxclass" : "newobj",
									"numinlets" : 1,
									"numoutlets" : 1,
									"outlettype" : [ "" ],
									"patching_rect" : [ 140.5, 213.0, 80.0, 22.0 ],
									"text" : "prepend read"
								}

							}
, 							{
								"box" : 								{
									"id" : "obj-30",
									"items" : [ "AKWF_1505_48k-C4.wav", ",", "eorgan_0001_48k-C4.wav", ",", "epiano_0004_48k-C4.wav", ",", "oboe_0008_48k-C4.wav", ",", "sinharm_0007_48k-C4.wav", ",", "theremin_0003_48k-C4.wav", ",", "tri_0007_48k-C4.wav" ],
									"maxclass" : "umenu",
									"numinlets" : 1,
									"numoutlets" : 3,
									"outlettype" : [ "int", "", "" ],
									"parameter_enable" : 0,
									"patching_rect" : [ 45.0, 154.0, 171.0, 22.0 ]
								}

							}
, 							{
								"box" : 								{
									"id" : "obj-26",
									"maxclass" : "newobj",
									"numinlets" : 1,
									"numoutlets" : 2,
									"outlettype" : [ "float", "bang" ],
									"patching_rect" : [ 140.5, 245.0, 89.0, 22.0 ],
									"text" : "buffer~ sound2"
								}

							}
 ],
						"lines" : [ 							{
								"patchline" : 								{
									"destination" : [ "obj-4", 0 ],
									"source" : [ "obj-10", 0 ]
								}

							}
, 							{
								"patchline" : 								{
									"destination" : [ "obj-15", 0 ],
									"order" : 0,
									"source" : [ "obj-11", 0 ]
								}

							}
, 							{
								"patchline" : 								{
									"destination" : [ "obj-27", 0 ],
									"order" : 1,
									"source" : [ "obj-11", 0 ]
								}

							}
, 							{
								"patchline" : 								{
									"destination" : [ "obj-9", 1 ],
									"order" : 0,
									"source" : [ "obj-27", 0 ]
								}

							}
, 							{
								"patchline" : 								{
									"destination" : [ "obj-9", 0 ],
									"order" : 1,
									"source" : [ "obj-27", 0 ]
								}

							}
, 							{
								"patchline" : 								{
									"destination" : [ "obj-13", 1 ],
									"source" : [ "obj-3", 6 ]
								}

							}
, 							{
								"patchline" : 								{
									"destination" : [ "obj-5", 0 ],
									"source" : [ "obj-30", 1 ]
								}

							}
, 							{
								"patchline" : 								{
									"destination" : [ "obj-26", 0 ],
									"source" : [ "obj-34", 0 ]
								}

							}
, 							{
								"patchline" : 								{
									"destination" : [ "obj-11", 0 ],
									"order" : 1,
									"source" : [ "obj-4", 0 ]
								}

							}
, 							{
								"patchline" : 								{
									"destination" : [ "obj-17", 0 ],
									"order" : 0,
									"source" : [ "obj-4", 0 ]
								}

							}
, 							{
								"patchline" : 								{
									"destination" : [ "obj-3", 0 ],
									"source" : [ "obj-5", 0 ]
								}

							}
, 							{
								"patchline" : 								{
									"destination" : [ "obj-34", 0 ],
									"source" : [ "obj-5", 1 ]
								}

							}
, 							{
								"patchline" : 								{
									"destination" : [ "obj-10", 0 ],
									"hidden" : 1,
									"source" : [ "obj-71", 0 ]
								}

							}
, 							{
								"patchline" : 								{
									"destination" : [ "obj-74", 0 ],
									"source" : [ "obj-75", 0 ]
								}

							}
 ]
					}
,
					"patching_rect" : [ 649.0, 20.0, 54.0, 22.0 ],
					"saved_object_attributes" : 					{
						"description" : "",
						"digest" : "",
						"globalpatchername" : "",
						"tags" : ""
					}
,
					"text" : "p wave~",
					"varname" : "wave~"
				}

			}
, 			{
				"box" : 				{
					"id" : "obj-9",
					"maxclass" : "newobj",
					"numinlets" : 0,
					"numoutlets" : 0,
					"patcher" : 					{
						"fileversion" : 1,
						"appversion" : 						{
							"major" : 8,
							"minor" : 5,
							"revision" : 2,
							"architecture" : "x64",
							"modernui" : 1
						}
,
						"classnamespace" : "box",
						"rect" : [ 34.0, 79.0, 962.0, 626.0 ],
						"bglocked" : 0,
						"openinpresentation" : 0,
						"default_fontsize" : 12.0,
						"default_fontface" : 0,
						"default_fontname" : "Arial",
						"gridonopen" : 1,
						"gridsize" : [ 15.0, 15.0 ],
						"gridsnaponopen" : 1,
						"objectsnaponopen" : 1,
						"statusbarvisible" : 2,
						"toolbarvisible" : 1,
						"lefttoolbarpinned" : 0,
						"toptoolbarpinned" : 0,
						"righttoolbarpinned" : 0,
						"bottomtoolbarpinned" : 0,
						"toolbars_unpinned_last_save" : 0,
						"tallnewobj" : 0,
						"boxanimatetime" : 200,
						"enablehscroll" : 1,
						"enablevscroll" : 1,
						"devicewidth" : 0.0,
						"description" : "",
						"digest" : "",
						"tags" : "",
						"style" : "",
						"subpatcher_template" : "",
						"showontab" : 0,
						"assistshowspatchername" : 0,
						"boxes" : [ 							{
								"box" : 								{
									"id" : "obj-7",
									"maxclass" : "comment",
									"numinlets" : 1,
									"numoutlets" : 0,
									"patching_rect" : [ 26.5, 46.0, 529.0, 20.0 ],
									"text" : "use groove to play back sounds in buffers with variable playback speed"
								}

							}
, 							{
								"box" : 								{
									"fontsize" : 16.0,
									"id" : "obj-10",
									"maxclass" : "comment",
									"numinlets" : 1,
									"numoutlets" : 0,
									"patching_rect" : [ 26.5, 16.0, 529.0, 24.0 ],
									"text" : "waveform~ is a UI object for viewing waveforms of buffer~ contents"
								}

							}
, 							{
								"box" : 								{
									"hidden" : 1,
									"id" : "obj-4",
									"maxclass" : "newobj",
									"numinlets" : 1,
									"numoutlets" : 4,
									"outlettype" : [ "", "", "", "" ],
									"patching_rect" : [ 262.0, 340.0, 56.0, 22.0 ],
									"restore" : 									{
										"live.gain~" : [ -70.0 ]
									}
,
									"text" : "autopattr",
									"varname" : "u160012651"
								}

							}
, 							{
								"box" : 								{
									"id" : "obj-17",
									"lastchannelcount" : 0,
									"maxclass" : "live.gain~",
									"numinlets" : 2,
									"numoutlets" : 5,
									"outlettype" : [ "signal", "signal", "", "float", "list" ],
									"parameter_enable" : 1,
									"patching_rect" : [ 42.0, 349.0, 48.0, 136.0 ],
									"saved_attribute_attributes" : 									{
										"valueof" : 										{
											"parameter_longname" : "live.gain~[7]",
											"parameter_mmax" : 6.0,
											"parameter_mmin" : -70.0,
											"parameter_shortname" : "live.gain~[6]",
											"parameter_type" : 0,
											"parameter_unitstyle" : 4
										}

									}
,
									"varname" : "live.gain~"
								}

							}
, 							{
								"box" : 								{
									"bubble" : 1,
									"bubbleside" : 3,
									"id" : "obj-26",
									"maxclass" : "comment",
									"numinlets" : 1,
									"numoutlets" : 0,
									"patching_rect" : [ 227.0, 250.0, 126.5, 24.0 ],
									"text" : "sample loop points"
								}

							}
, 							{
								"box" : 								{
									"format" : 6,
									"id" : "obj-19",
									"maxclass" : "flonum",
									"numinlets" : 1,
									"numoutlets" : 2,
									"outlettype" : [ "", "bang" ],
									"parameter_enable" : 0,
									"patching_rect" : [ 356.800000000000011, 251.0, 93.0, 22.0 ]
								}

							}
, 							{
								"box" : 								{
									"format" : 6,
									"id" : "obj-18",
									"maxclass" : "flonum",
									"numinlets" : 1,
									"numoutlets" : 2,
									"outlettype" : [ "", "bang" ],
									"parameter_enable" : 0,
									"patching_rect" : [ 458.199999999999989, 251.0, 125.000000000000057, 22.0 ]
								}

							}
, 							{
								"box" : 								{
									"id" : "obj-15",
									"maxclass" : "newobj",
									"numinlets" : 1,
									"numoutlets" : 1,
									"outlettype" : [ "" ],
									"patching_rect" : [ 96.0, 136.0, 70.0, 22.0 ],
									"text" : "loadmess 1"
								}

							}
, 							{
								"box" : 								{
									"id" : "obj-14",
									"maxclass" : "newobj",
									"numinlets" : 1,
									"numoutlets" : 2,
									"outlettype" : [ "bang", "float" ],
									"patching_rect" : [ 96.0, 209.0, 29.5, 22.0 ],
									"text" : "t b f"
								}

							}
, 							{
								"box" : 								{
									"id" : "obj-13",
									"maxclass" : "newobj",
									"numinlets" : 2,
									"numoutlets" : 1,
									"outlettype" : [ "float" ],
									"patching_rect" : [ 42.0, 241.0, 29.5, 22.0 ],
									"text" : "* 1."
								}

							}
, 							{
								"box" : 								{
									"id" : "obj-12",
									"maxclass" : "toggle",
									"numinlets" : 1,
									"numoutlets" : 1,
									"outlettype" : [ "int" ],
									"parameter_enable" : 0,
									"patching_rect" : [ 96.0, 164.0, 24.0, 24.0 ]
								}

							}
, 							{
								"box" : 								{
									"id" : "obj-9",
									"maxclass" : "newobj",
									"numinlets" : 2,
									"numoutlets" : 0,
									"patching_rect" : [ 42.0, 524.0, 35.0, 22.0 ],
									"text" : "dac~"
								}

							}
, 							{
								"box" : 								{
									"format" : 6,
									"id" : "obj-8",
									"maxclass" : "flonum",
									"numinlets" : 1,
									"numoutlets" : 2,
									"outlettype" : [ "", "bang" ],
									"parameter_enable" : 0,
									"patching_rect" : [ 42.0, 165.0, 50.0, 22.0 ]
								}

							}
, 							{
								"box" : 								{
									"id" : "obj-2",
									"maxclass" : "newobj",
									"numinlets" : 1,
									"numoutlets" : 1,
									"outlettype" : [ "signal" ],
									"patching_rect" : [ 42.0, 276.0, 31.0, 22.0 ],
									"text" : "sig~"
								}

							}
, 							{
								"box" : 								{
									"color" : [ 0.501960784313725, 0.501960784313725, 0.501960784313725, 1.0 ],
									"id" : "obj-1",
									"maxclass" : "newobj",
									"numinlets" : 3,
									"numoutlets" : 2,
									"outlettype" : [ "signal", "signal" ],
									"patching_rect" : [ 42.0, 319.0, 95.0, 22.0 ],
									"text" : "groove~ sound1"
								}

							}
, 							{
								"box" : 								{
									"id" : "obj-6",
									"maxclass" : "newobj",
									"numinlets" : 1,
									"numoutlets" : 1,
									"outlettype" : [ "bang" ],
									"patching_rect" : [ 262.0, 86.0, 58.0, 22.0 ],
									"text" : "loadbang"
								}

							}
, 							{
								"box" : 								{
									"id" : "obj-5",
									"maxclass" : "message",
									"numinlets" : 2,
									"numoutlets" : 1,
									"outlettype" : [ "" ],
									"patching_rect" : [ 262.0, 140.0, 112.0, 22.0 ],
									"text" : "buffername sound1"
								}

							}
, 							{
								"box" : 								{
									"buffername" : "sound1",
									"id" : "obj-3",
									"maxclass" : "waveform~",
									"numinlets" : 5,
									"numoutlets" : 6,
									"outlettype" : [ "float", "float", "float", "float", "list", "" ],
									"patching_rect" : [ 262.0, 172.0, 256.0, 64.0 ],
									"setmode" : 1
								}

							}
, 							{
								"box" : 								{
									"attr" : "setmode",
									"id" : "obj-20",
									"maxclass" : "attrui",
									"numinlets" : 1,
									"numoutlets" : 1,
									"outlettype" : [ "" ],
									"parameter_enable" : 0,
									"patching_rect" : [ 377.0, 142.0, 150.0, 22.0 ],
									"text_width" : 68.0
								}

							}
 ],
						"lines" : [ 							{
								"patchline" : 								{
									"destination" : [ "obj-17", 0 ],
									"source" : [ "obj-1", 0 ]
								}

							}
, 							{
								"patchline" : 								{
									"destination" : [ "obj-14", 0 ],
									"source" : [ "obj-12", 0 ]
								}

							}
, 							{
								"patchline" : 								{
									"destination" : [ "obj-2", 0 ],
									"source" : [ "obj-13", 0 ]
								}

							}
, 							{
								"patchline" : 								{
									"destination" : [ "obj-13", 1 ],
									"source" : [ "obj-14", 1 ]
								}

							}
, 							{
								"patchline" : 								{
									"destination" : [ "obj-13", 0 ],
									"source" : [ "obj-14", 0 ]
								}

							}
, 							{
								"patchline" : 								{
									"destination" : [ "obj-12", 0 ],
									"source" : [ "obj-15", 0 ]
								}

							}
, 							{
								"patchline" : 								{
									"destination" : [ "obj-9", 1 ],
									"order" : 0,
									"source" : [ "obj-17", 0 ]
								}

							}
, 							{
								"patchline" : 								{
									"destination" : [ "obj-9", 0 ],
									"order" : 1,
									"source" : [ "obj-17", 0 ]
								}

							}
, 							{
								"patchline" : 								{
									"destination" : [ "obj-1", 2 ],
									"source" : [ "obj-18", 0 ]
								}

							}
, 							{
								"patchline" : 								{
									"destination" : [ "obj-1", 1 ],
									"source" : [ "obj-19", 0 ]
								}

							}
, 							{
								"patchline" : 								{
									"destination" : [ "obj-1", 0 ],
									"source" : [ "obj-2", 0 ]
								}

							}
, 							{
								"patchline" : 								{
									"destination" : [ "obj-3", 0 ],
									"source" : [ "obj-20", 0 ]
								}

							}
, 							{
								"patchline" : 								{
									"destination" : [ "obj-18", 0 ],
									"source" : [ "obj-3", 3 ]
								}

							}
, 							{
								"patchline" : 								{
									"destination" : [ "obj-19", 0 ],
									"source" : [ "obj-3", 2 ]
								}

							}
, 							{
								"patchline" : 								{
									"destination" : [ "obj-3", 0 ],
									"source" : [ "obj-5", 0 ]
								}

							}
, 							{
								"patchline" : 								{
									"destination" : [ "obj-5", 0 ],
									"source" : [ "obj-6", 0 ]
								}

							}
, 							{
								"patchline" : 								{
									"destination" : [ "obj-13", 0 ],
									"source" : [ "obj-8", 0 ]
								}

							}
 ]
					}
,
					"patching_rect" : [ 534.0, 20.0, 78.0, 22.0 ],
					"saved_object_attributes" : 					{
						"description" : "",
						"digest" : "",
						"globalpatchername" : "",
						"tags" : ""
					}
,
					"text" : "p waveform~",
					"varname" : "waveform~"
				}

			}
, 			{
				"box" : 				{
					"id" : "obj-8",
					"maxclass" : "newobj",
					"numinlets" : 0,
					"numoutlets" : 0,
					"patcher" : 					{
						"fileversion" : 1,
						"appversion" : 						{
							"major" : 8,
							"minor" : 5,
							"revision" : 2,
							"architecture" : "x64",
							"modernui" : 1
						}
,
						"classnamespace" : "box",
						"rect" : [ 0.0, 26.0, 962.0, 626.0 ],
						"bglocked" : 0,
						"openinpresentation" : 0,
						"default_fontsize" : 12.0,
						"default_fontface" : 0,
						"default_fontname" : "Arial",
						"gridonopen" : 1,
						"gridsize" : [ 15.0, 15.0 ],
						"gridsnaponopen" : 1,
						"objectsnaponopen" : 1,
						"statusbarvisible" : 2,
						"toolbarvisible" : 1,
						"lefttoolbarpinned" : 0,
						"toptoolbarpinned" : 0,
						"righttoolbarpinned" : 0,
						"bottomtoolbarpinned" : 0,
						"toolbars_unpinned_last_save" : 0,
						"tallnewobj" : 0,
						"boxanimatetime" : 200,
						"enablehscroll" : 1,
						"enablevscroll" : 1,
						"devicewidth" : 0.0,
						"description" : "",
						"digest" : "",
						"tags" : "",
						"style" : "",
						"subpatcher_template" : "",
						"showontab" : 1,
						"assistshowspatchername" : 0,
						"boxes" : [ 							{
								"box" : 								{
									"hidden" : 1,
									"id" : "obj-5",
									"maxclass" : "newobj",
									"numinlets" : 1,
									"numoutlets" : 4,
									"outlettype" : [ "", "", "", "" ],
									"patching_rect" : [ 92.0, 362.0, 56.0, 22.0 ],
									"text" : "autopattr",
									"varname" : "u160012651[1]"
								}

							}
, 							{
								"box" : 								{
									"fontsize" : 24.0,
									"id" : "obj-7",
									"maxclass" : "comment",
									"numinlets" : 1,
									"numoutlets" : 0,
									"patching_rect" : [ 60.0, 23.0, 358.0, 33.0 ],
									"text" : "Groove~"
								}

							}
, 							{
								"box" : 								{
									"hidden" : 1,
									"id" : "obj-3",
									"maxclass" : "newobj",
									"numinlets" : 1,
									"numoutlets" : 4,
									"outlettype" : [ "", "", "", "" ],
									"patching_rect" : [ 65.0, 626.0, 56.0, 22.0 ],
									"restore" : 									{
										"live.gain~" : [ -70.0 ]
									}
,
									"text" : "autopattr",
									"varname" : "u160012651"
								}

							}
, 							{
								"box" : 								{
									"id" : "obj-4",
									"maxclass" : "comment",
									"numinlets" : 1,
									"numoutlets" : 0,
									"patching_rect" : [ 60.0, 88.0, 529.0, 20.0 ],
									"text" : "use groove to play back sounds in buffers with variable playback speed"
								}

							}
, 							{
								"box" : 								{
									"fontsize" : 16.0,
									"id" : "obj-6",
									"maxclass" : "comment",
									"numinlets" : 1,
									"numoutlets" : 0,
									"patching_rect" : [ 60.0, 58.0, 529.0, 24.0 ],
									"text" : "groove~ plays the sound in a buffer~"
								}

							}
, 							{
								"box" : 								{
									"id" : "obj-17",
									"lastchannelcount" : 0,
									"maxclass" : "live.gain~",
									"numinlets" : 2,
									"numoutlets" : 5,
									"orientation" : 1,
									"outlettype" : [ "signal", "signal", "", "float", "list" ],
									"parameter_enable" : 1,
									"patching_rect" : [ 179.0, 335.0, 136.0, 47.0 ],
									"saved_attribute_attributes" : 									{
										"valueof" : 										{
											"parameter_longname" : "live.gain~[6]",
											"parameter_mmax" : 6.0,
											"parameter_mmin" : -70.0,
											"parameter_shortname" : "live.gain~[6]",
											"parameter_type" : 0,
											"parameter_unitstyle" : 4
										}

									}
,
									"varname" : "live.gain~"
								}

							}
, 							{
								"box" : 								{
									"bubble" : 1,
									"bubbleside" : 3,
									"id" : "obj-16",
									"linecount" : 2,
									"maxclass" : "comment",
									"numinlets" : 1,
									"numoutlets" : 0,
									"patching_rect" : [ 25.0, 143.5, 150.0, 37.0 ],
									"text" : "adjust playback speed (1. = normal speed)"
								}

							}
, 							{
								"box" : 								{
									"bubble" : 1,
									"id" : "obj-26",
									"linecount" : 3,
									"maxclass" : "comment",
									"numinlets" : 1,
									"numoutlets" : 0,
									"patching_rect" : [ 324.0, 284.5, 152.0, 51.0 ],
									"text" : "the second argument (\"sound1\") refers to the buffer we'll play back"
								}

							}
, 							{
								"box" : 								{
									"id" : "obj-15",
									"maxclass" : "newobj",
									"numinlets" : 1,
									"numoutlets" : 1,
									"outlettype" : [ "" ],
									"patching_rect" : [ 233.0, 122.0, 70.0, 22.0 ],
									"text" : "loadmess 1"
								}

							}
, 							{
								"box" : 								{
									"id" : "obj-14",
									"maxclass" : "newobj",
									"numinlets" : 1,
									"numoutlets" : 2,
									"outlettype" : [ "bang", "float" ],
									"patching_rect" : [ 233.0, 195.0, 29.5, 22.0 ],
									"text" : "t b f"
								}

							}
, 							{
								"box" : 								{
									"id" : "obj-13",
									"maxclass" : "newobj",
									"numinlets" : 2,
									"numoutlets" : 1,
									"outlettype" : [ "float" ],
									"patching_rect" : [ 179.0, 227.0, 29.5, 22.0 ],
									"text" : "* 1."
								}

							}
, 							{
								"box" : 								{
									"id" : "obj-12",
									"maxclass" : "toggle",
									"numinlets" : 1,
									"numoutlets" : 1,
									"outlettype" : [ "int" ],
									"parameter_enable" : 0,
									"patching_rect" : [ 233.0, 150.0, 24.0, 24.0 ]
								}

							}
, 							{
								"box" : 								{
									"id" : "obj-9",
									"maxclass" : "ezdac~",
									"numinlets" : 2,
									"numoutlets" : 0,
									"patching_rect" : [ 179.0, 396.0, 45.0, 45.0 ]
								}

							}
, 							{
								"box" : 								{
									"format" : 6,
									"id" : "obj-8",
									"maxclass" : "flonum",
									"numinlets" : 1,
									"numoutlets" : 2,
									"outlettype" : [ "", "bang" ],
									"parameter_enable" : 0,
									"patching_rect" : [ 179.0, 151.0, 50.0, 22.0 ]
								}

							}
, 							{
								"box" : 								{
									"id" : "obj-2",
									"maxclass" : "newobj",
									"numinlets" : 1,
									"numoutlets" : 1,
									"outlettype" : [ "signal" ],
									"patching_rect" : [ 179.0, 262.0, 31.0, 22.0 ],
									"text" : "sig~"
								}

							}
, 							{
								"box" : 								{
									"color" : [ 0.83921568627451, 0.423529411764706, 0.023529411764706, 1.0 ],
									"id" : "obj-1",
									"maxclass" : "newobj",
									"numinlets" : 3,
									"numoutlets" : 2,
									"outlettype" : [ "signal", "signal" ],
									"patching_rect" : [ 179.0, 299.0, 143.0, 22.0 ],
									"text" : "groove~ sound1 @loop 1"
								}

							}
 ],
						"lines" : [ 							{
								"patchline" : 								{
									"destination" : [ "obj-17", 0 ],
									"source" : [ "obj-1", 0 ]
								}

							}
, 							{
								"patchline" : 								{
									"destination" : [ "obj-14", 0 ],
									"source" : [ "obj-12", 0 ]
								}

							}
, 							{
								"patchline" : 								{
									"destination" : [ "obj-2", 0 ],
									"source" : [ "obj-13", 0 ]
								}

							}
, 							{
								"patchline" : 								{
									"destination" : [ "obj-13", 1 ],
									"source" : [ "obj-14", 1 ]
								}

							}
, 							{
								"patchline" : 								{
									"destination" : [ "obj-13", 0 ],
									"source" : [ "obj-14", 0 ]
								}

							}
, 							{
								"patchline" : 								{
									"destination" : [ "obj-12", 0 ],
									"order" : 0,
									"source" : [ "obj-15", 0 ]
								}

							}
, 							{
								"patchline" : 								{
									"destination" : [ "obj-8", 0 ],
									"order" : 1,
									"source" : [ "obj-15", 0 ]
								}

							}
, 							{
								"patchline" : 								{
									"destination" : [ "obj-9", 1 ],
									"order" : 0,
									"source" : [ "obj-17", 0 ]
								}

							}
, 							{
								"patchline" : 								{
									"destination" : [ "obj-9", 0 ],
									"order" : 1,
									"source" : [ "obj-17", 0 ]
								}

							}
, 							{
								"patchline" : 								{
									"destination" : [ "obj-1", 0 ],
									"source" : [ "obj-2", 0 ]
								}

							}
, 							{
								"patchline" : 								{
									"destination" : [ "obj-13", 0 ],
									"source" : [ "obj-8", 0 ]
								}

							}
 ]
					}
,
					"patching_rect" : [ 278.0, 20.0, 62.0, 22.0 ],
					"saved_object_attributes" : 					{
						"description" : "",
						"digest" : "",
						"globalpatchername" : "",
						"tags" : ""
					}
,
					"text" : "p groove~",
					"varname" : "groove~"
				}

			}
, 			{
				"box" : 				{
					"id" : "obj-2",
					"maxclass" : "newobj",
					"numinlets" : 0,
					"numoutlets" : 0,
					"patcher" : 					{
						"fileversion" : 1,
						"appversion" : 						{
							"major" : 8,
							"minor" : 5,
							"revision" : 2,
							"architecture" : "x64",
							"modernui" : 1
						}
,
						"classnamespace" : "box",
						"rect" : [ 810.0, 231.0, 962.0, 626.0 ],
						"bglocked" : 0,
						"openinpresentation" : 0,
						"default_fontsize" : 12.0,
						"default_fontface" : 0,
						"default_fontname" : "Arial",
						"gridonopen" : 1,
						"gridsize" : [ 15.0, 15.0 ],
						"gridsnaponopen" : 1,
						"objectsnaponopen" : 1,
						"statusbarvisible" : 2,
						"toolbarvisible" : 1,
						"lefttoolbarpinned" : 0,
						"toptoolbarpinned" : 0,
						"righttoolbarpinned" : 0,
						"bottomtoolbarpinned" : 0,
						"toolbars_unpinned_last_save" : 0,
						"tallnewobj" : 0,
						"boxanimatetime" : 200,
						"enablehscroll" : 1,
						"enablevscroll" : 1,
						"devicewidth" : 0.0,
						"description" : "",
						"digest" : "",
						"tags" : "",
						"style" : "",
						"subpatcher_template" : "",
						"showontab" : 1,
						"assistshowspatchername" : 0,
						"boxes" : [ 							{
								"box" : 								{
									"fontsize" : 24.0,
									"id" : "obj-3",
									"maxclass" : "comment",
									"numinlets" : 1,
									"numoutlets" : 0,
									"patching_rect" : [ 67.0, 43.0, 358.0, 33.0 ],
									"text" : "Buffer~"
								}

							}
, 							{
								"box" : 								{
									"hidden" : 1,
									"id" : "obj-12",
									"maxclass" : "newobj",
									"numinlets" : 1,
									"numoutlets" : 4,
									"outlettype" : [ "", "", "", "" ],
									"patching_rect" : [ 77.0, 347.0, 56.0, 22.0 ],
									"text" : "autopattr",
									"varname" : "u160012651"
								}

							}
, 							{
								"box" : 								{
									"bubble" : 1,
									"bubbleside" : 0,
									"id" : "obj-8",
									"linecount" : 4,
									"maxclass" : "comment",
									"numinlets" : 1,
									"numoutlets" : 0,
									"patching_rect" : [ 58.0, 239.5, 175.0, 79.0 ],
									"text" : "this buffer has a name. the name allows us to use other objects to access the contents of this buffer"
								}

							}
, 							{
								"box" : 								{
									"bubble" : 1,
									"id" : "obj-7",
									"linecount" : 2,
									"maxclass" : "comment",
									"numinlets" : 1,
									"numoutlets" : 0,
									"patching_rect" : [ 203.0, 149.75, 154.0, 37.0 ],
									"text" : "click, then double-click the buffer~ object"
								}

							}
, 							{
								"box" : 								{
									"id" : "obj-2",
									"maxclass" : "message",
									"numinlets" : 2,
									"numoutlets" : 1,
									"outlettype" : [ "" ],
									"patching_rect" : [ 77.0, 157.25, 124.0, 22.0 ],
									"text" : "read mallet-cycle.wav"
								}

							}
, 							{
								"box" : 								{
									"id" : "obj-4",
									"maxclass" : "comment",
									"numinlets" : 1,
									"numoutlets" : 0,
									"patching_rect" : [ 67.0, 112.0, 529.0, 20.0 ],
									"text" : "buffer~ is a powerful object for storing audio and making it available to use"
								}

							}
, 							{
								"box" : 								{
									"fontsize" : 16.0,
									"id" : "obj-6",
									"maxclass" : "comment",
									"numinlets" : 1,
									"numoutlets" : 0,
									"patching_rect" : [ 67.0, 82.0, 529.0, 24.0 ],
									"text" : "buffer~ stores audio "
								}

							}
, 							{
								"box" : 								{
									"bubble" : 1,
									"id" : "obj-26",
									"linecount" : 3,
									"maxclass" : "comment",
									"numinlets" : 1,
									"numoutlets" : 0,
									"patching_rect" : [ 178.0, 199.75, 175.0, 51.0 ],
									"text" : "you can also drag a file straight onto the object with the patcher unlocked"
								}

							}
, 							{
								"box" : 								{
									"color" : [ 0.83921568627451, 0.423529411764706, 0.023529411764706, 1.0 ],
									"id" : "obj-20",
									"maxclass" : "newobj",
									"numinlets" : 1,
									"numoutlets" : 2,
									"outlettype" : [ "float", "bang" ],
									"patching_rect" : [ 77.0, 215.5, 89.0, 22.0 ],
									"text" : "buffer~ sound1"
								}

							}
 ],
						"lines" : [ 							{
								"patchline" : 								{
									"destination" : [ "obj-20", 0 ],
									"source" : [ "obj-2", 0 ]
								}

							}
 ]
					}
,
					"patching_rect" : [ 209.0, 20.0, 56.0, 22.0 ],
					"saved_object_attributes" : 					{
						"description" : "",
						"digest" : "",
						"globalpatchername" : "",
						"tags" : ""
					}
,
					"text" : "p buffer~",
					"varname" : "buffer~"
				}

			}
 ],
		"lines" : [ 			{
				"patchline" : 				{
					"destination" : [ "obj-3", 0 ],
					"source" : [ "obj-15", 0 ]
				}

			}
, 			{
				"patchline" : 				{
					"destination" : [ "obj-19", 0 ],
					"source" : [ "obj-16", 0 ]
				}

			}
, 			{
				"patchline" : 				{
					"destination" : [ "obj-28", 0 ],
					"source" : [ "obj-16", 3 ]
				}

			}
, 			{
				"patchline" : 				{
					"destination" : [ "obj-41", 0 ],
					"source" : [ "obj-16", 2 ]
				}

			}
, 			{
				"patchline" : 				{
					"destination" : [ "obj-41", 0 ],
					"source" : [ "obj-16", 1 ]
				}

			}
, 			{
				"patchline" : 				{
					"destination" : [ "obj-33", 1 ],
					"midpoints" : [ 125.5, 401.0, 333.5, 401.0 ],
					"source" : [ "obj-18", 0 ]
				}

			}
, 			{
				"patchline" : 				{
					"destination" : [ "obj-18", 0 ],
					"source" : [ "obj-19", 1 ]
				}

			}
, 			{
				"patchline" : 				{
					"destination" : [ "obj-18", 0 ],
					"source" : [ "obj-19", 0 ]
				}

			}
, 			{
				"patchline" : 				{
					"destination" : [ "obj-38", 0 ],
					"source" : [ "obj-23", 0 ]
				}

			}
, 			{
				"patchline" : 				{
					"destination" : [ "obj-30", 0 ],
					"source" : [ "obj-28", 0 ]
				}

			}
, 			{
				"patchline" : 				{
					"destination" : [ "obj-16", 0 ],
					"source" : [ "obj-3", 0 ]
				}

			}
, 			{
				"patchline" : 				{
					"destination" : [ "obj-31", 0 ],
					"source" : [ "obj-30", 1 ]
				}

			}
, 			{
				"patchline" : 				{
					"destination" : [ "obj-32", 0 ],
					"source" : [ "obj-31", 0 ]
				}

			}
, 			{
				"patchline" : 				{
					"destination" : [ "obj-23", 1 ],
					"source" : [ "obj-32", 1 ]
				}

			}
, 			{
				"patchline" : 				{
					"destination" : [ "obj-33", 0 ],
					"source" : [ "obj-32", 0 ]
				}

			}
, 			{
				"patchline" : 				{
					"destination" : [ "obj-23", 0 ],
					"source" : [ "obj-33", 0 ]
				}

			}
, 			{
				"patchline" : 				{
					"destination" : [ "obj-39", 0 ],
					"source" : [ "obj-38", 0 ]
				}

			}
, 			{
				"patchline" : 				{
					"destination" : [ "obj-3", 0 ],
					"midpoints" : [ 314.0, 534.0, 479.0, 534.0, 479.0, 185.0, 125.5, 185.0 ],
					"source" : [ "obj-39", 0 ]
				}

			}
, 			{
				"patchline" : 				{
					"destination" : [ "obj-15", 0 ],
					"midpoints" : [ 251.5, 296.0, 460.0, 296.0, 460.0, 145.0, 125.5, 145.0 ],
					"source" : [ "obj-41", 0 ]
				}

			}
, 			{
				"patchline" : 				{
					"destination" : [ "obj-45", 0 ],
					"source" : [ "obj-42", 0 ]
				}

			}
, 			{
				"patchline" : 				{
					"destination" : [ "obj-15", 0 ],
					"source" : [ "obj-45", 1 ]
				}

			}
, 			{
				"patchline" : 				{
					"destination" : [ "obj-33", 0 ],
					"midpoints" : [ 75.5, 414.0, 314.5, 414.0 ],
					"source" : [ "obj-45", 0 ]
				}

			}
 ],
		"parameters" : 		{
			"obj-10::obj-27" : [ "live.gain~[4]", "live.gain~[4]", 0 ],
			"obj-11::obj-17" : [ "live.gain~[9]", "live.gain~[6]", 0 ],
			"obj-13::obj-27" : [ "live.gain~[5]", "live.gain~[4]", 0 ],
			"obj-4::obj-17" : [ "live.gain~[8]", "live.gain~[6]", 0 ],
			"obj-8::obj-17" : [ "live.gain~[6]", "live.gain~[6]", 0 ],
			"obj-9::obj-17" : [ "live.gain~[7]", "live.gain~[6]", 0 ],
			"parameterbanks" : 			{
				"0" : 				{
					"index" : 0,
					"name" : "",
					"parameters" : [ "-", "-", "-", "-", "-", "-", "-", "-" ]
				}

			}
,
			"inherited_shortname" : 1
		}
,
		"dependency_cache" : [ 			{
				"name" : "wfknob.png",
				"bootpath" : "C74:/media/max/picts",
				"type" : "PNG",
				"implicit" : 1
			}
, 			{
				"name" : "wfmodes.png",
				"bootpath" : "C74:/media/max/picts",
				"type" : "PNG",
				"implicit" : 1
			}
 ],
		"autosave" : 0
	}

}
